<?xml version="1.0" encoding="utf-8"?>
<svg version="1.1" xmlns="http://www.w3.org/2000/svg" xmlns:xlink="http://www.w3.org/1999/xlink" x="0px" y="0px" viewBox="0 0 144.83 34.54">
<style type="text/css">.fill{ fill:#000; }</style>
<path class="fill" d="M50.45,5.67h4.42V29.26H50.45ZM63.14,29.26H58.72V12.9h4.42ZM63.14,9H58.72V5.67h4.42ZM70.8,12.9l.2,2.34a6,6,0,0,1,2-2,5.24,5.24,0,0,1,2.68-.69,5,5,0,0,1,3.87,1.55A7.25,7.25,0,0,1,81,19V29.26H76.52V19a3.29,3.29,0,0,0-.67-2.34,2.66,2.66,0,0,0-2-.69,3.49,3.49,0,0,0-1.57.35,3.27,3.27,0,0,0-1.17,1v11.9H66.69V12.9Zm19.07,9.51H88.66v6.85H84.25V5.67h4.41V19.05h1.09l3.79-6.15h5.11l-5.23,7.4,6,9H94.39ZM102,29.26V16H99.55V12.9H102V11.09a5.55,5.55,0,0,1,1.59-4.25A6.27,6.27,0,0,1,108,5.36a7.37,7.37,0,0,1,1.14.08c.39,0,.82.13,1.28.23L110.07,9l-.7-.1a5.24,5.24,0,0,0-.79,0,2.14,2.14,0,0,0-1.63.59,2.38,2.38,0,0,0-.55,1.7V12.9h3.25V16H106.4V29.26Zm14.56,0h-4.41V12.9h4.41Zm0-20.28h-4.41V5.67h4.41Zm12.23,7.71-1.61,0a2.87,2.87,0,0,0-1.62.41,2.56,2.56,0,0,0-1,1.15V29.26h-4.4V12.9h4.1l.2,2.42a5.14,5.14,0,0,1,1.49-2,3.35,3.35,0,0,1,2.11-.72,2.93,2.93,0,0,1,.61.06c.19,0,.37.08.57.13Zm9.09-.69a2.3,2.3,0,0,0-1.93.93,4.85,4.85,0,0,0-.88,2.47l0,.08h5.41v-.4a3.49,3.49,0,0,0-.66-2.24,2.37,2.37,0,0,0-2-.84m.4,13.58a7.38,7.38,0,0,1-5.66-2.27,8.11,8.11,0,0,1-2.12-5.76v-.61a8.92,8.92,0,0,1,2-6A7.47,7.47,0,0,1,143,14.59a7.68,7.68,0,0,1,1.83,5.4v2.4h-9.76l0,.09a4.22,4.22,0,0,0,1.08,2.65,3.35,3.35,0,0,0,2.61,1,8.73,8.73,0,0,0,2.43-.29,11.94,11.94,0,0,0,2.12-.93l1.19,2.73A8.35,8.35,0,0,1,141.85,29a11.23,11.23,0,0,1-3.59.54"/>
<path class="fill" d="M41.4.25A.4.4,0,0,0,41,0H17.4A17.27,17.27,0,1,0,29.69,29.47c5-4.83,7.78-13.92,10-22.2L39.73,7l.15-.59a.37.37,0,0,0-.07-.34.4.4,0,0,0-.31-.16h-3a.39.39,0,0,1-.37-.24.38.38,0,0,1,.09-.43L41.31.67h0A.39.39,0,0,0,41.4.25ZM22.63,22.54a2.91,2.91,0,0,1-2.91,2.91H13.08a2.92,2.92,0,0,1-2.91-2.91V15.9A2.93,2.93,0,0,1,13.08,13h6.64a2.92,2.92,0,0,1,2.91,2.91v1.24H20.14V15.9a.43.43,0,0,0-.42-.42H13.08a.42.42,0,0,0-.41.42v6.64a.42.42,0,0,0,.41.42h6.64a.42.42,0,0,0,.42-.42h0V21.3h2.49Zm5-5a2.92,2.92,0,0,1-2.9,2.91H18.06a2.93,2.93,0,0,1-2.91-2.91V16.32h2.5v1.24a.42.42,0,0,0,.41.42h6.65a.43.43,0,0,0,.41-.42V10.92a.42.42,0,0,0-.41-.42H18.06a.42.42,0,0,0-.41.42v1.24H15.16V10.92A2.92,2.92,0,0,1,18.06,8h6.65a2.9,2.9,0,0,1,2.9,2.91Z"/>
</svg>