<?xml version="1.0" encoding="utf-8"?>
<svg version="1.1" xmlns="http://www.w3.org/2000/svg" xmlns:xlink="http://www.w3.org/1999/xlink" x="0px" y="0px" viewBox="0 0 124.8 31.2" xml:space="preserve">
<defs><style type="text/css">.fill1 { fill:#ff3a3a; } .fill2 { fill:#ff3a3a; }</style></defs>
<title>Helene Fischer</title>

<polygon class="fill fill1 char11" points="16,0 16,6.9 4,6.9 4,0 0,0 0,17.6 4,17.6 4,10.4 16,10.4 16,17.6 20,17.6 20,0 "/>
<polygon class="fill fill1 char12" points="22.9,0 22.9,17.6 41,17.6 41,14.2 26.9,14.2 26.9,10.4 38.5,10.4 38.5,7 26.9,7 26.9,3.4 40.8,3.4 40.8,0 "/>
<polygon class="fill fill1 char13" points="43.6,0 43.6,17.6 60.1,17.6 60.1,14.1 47.6,14.1 47.6,0 "/>
<polygon class="fill fill1 char14" points="62.5,0 62.5,17.6 80.7,17.6 80.7,14.2 66.5,14.2 66.5,10.4 78.1,10.4 78.1,7 66.5,7 66.5,3.4 80.4,3.4 80.4,0 "/>
<polygon class="fill fill1 char15" points="99.4,0 99.4,12.1 87.5,0 83.3,0 83.3,17.6 87.2,17.6 87.2,4.9 99.8,17.6 103.3,17.6 103.3,0 "/>
<polygon class="fill fill1 char16" points="106.2,0 106.2,17.6 124.3,17.6 124.3,14.2 110.2,14.2 110.2,10.4 121.8,10.4 121.8,7 110.2,7 110.2,3.4 124,3.4 124,0 "/>

<polygon class="fill fill2 char21" points="7.4,24.2 7.4,23.4 0.1,23.4 0.1,31 1,31 1,27.7 6.4,27.7 6.4,26.9 1,26.9 1,24.2 "/>
<rect class="fill fill2 char22" x="19.9" y="23.4" width="0.9" height="7.6"/>
<path class="fill fill2 char23" d="M37.8,26.6c-1.8-0.1-3.2-0.3-3.2-1.3s1.6-1.4,3-1.4c1.2,0,2.3,0.4,3.1,1.1l0.7-0.6c-1.1-0.9-2.5-1.4-3.9-1.4 c-2,0-3.8,0.8-3.8,2.2s2,2,4,2.1s3.2,0.4,3.2,1.3s-1.1,1.5-2.9,1.5c-1.4,0.1-2.8-0.4-3.9-1.4l-0.6,0.7c1.2,1,2.8,1.6,4.5,1.6 c2.5,0,3.9-1,3.9-2.4S40.2,26.8,37.8,26.6"/>
<path class="fill fill2 char24" d="M58.5,30.4c-2.2,0-3.7-1.1-3.7-3.2s1.5-3.2,3.7-3.2c1.2-0.1,2.3,0.5,3,1.5l0.9-0.4c-0.9-1.3-2.3-2-3.9-1.9 c-2.9,0-4.6,1.6-4.6,4s1.8,4,4.6,4c1.5,0.1,3-0.6,3.9-1.9l-0.9-0.4C60.8,29.8,59.7,30.4,58.5,30.4"/>
<polygon class="fill fill2 char25" points="82.1,23.4 82.1,26.7 75.8,26.7 75.8,23.4 74.9,23.4 74.9,31 75.8,31 75.8,27.6 82.1,27.6 82.1,31 83,31 83,23.4 "/>
<polygon class="fill fill2 char26" points="97.3,30.2 97.3,27.5 102.7,27.5 102.7,26.7 97.3,26.7 97.3,24.2 103.7,24.2 103.7,23.4 96.4,23.4 96.4,31 103.8,31 103.8,30.2 "/>
<path class="fill fill2 char27" d="M122.2,28c1.3,0,2.3-1,2.4-2.3c0,0,0,0,0,0c0-1.5-1.2-2.3-2.9-2.3h-5.1V31h0.9v-2.9h3.6l2.5,2.9h1.2L122.2,28z M117.5,27.2v-3h4.1c1.2,0,2,0.5,2,1.5c0,1-0.8,1.5-2,1.5L117.5,27.2z"/>

</svg>
