<?xml version="1.0" encoding="utf-8"?>
<svg version="1.1" xmlns="http://www.w3.org/2000/svg" xmlns:xlink="http://www.w3.org/1999/xlink" x="0px" y="0px" viewBox="0 0 419.93 35.06">
<defs><style>.fill{fill:#f00;}</style></defs>
<path class="fill" d="M0,15.26C0,6.84,6.19,1.87,16,1.87s16,5,16,13.39-6.2,13.39-16,13.39S0,23.69,0,15.26Zm26.17,0c0-5.4-3.92-8.42-10.15-8.42s-10.15,3-10.15,8.42S9.75,23.69,16,23.69,26.17,20.66,26.17,15.26Z"/>
<path class="fill" d="M43.67,8H52V12.2H43.81V27.86H38.23V12.2H34.56V8h3.67V7.56C38.23,2.7,41.65.47,46,.47A14.83,14.83,0,0,1,52.2,1.8L51.08,5.22a7.86,7.86,0,0,0-3.81-1c-2.2,0-3.6.76-3.6,2.7Z"/>
<path class="fill" d="M62.42,6.91V8h8.32V12.2H62.57V27.86H57V12.2H53.32V8H57V7.56C57,2.7,60.41.47,64.8.47A14.79,14.79,0,0,1,71,1.8L69.84,5.22a7.87,7.87,0,0,0-3.82-1C63.83,4.21,62.42,5,62.42,6.91ZM73.65,2.84C73.65,1.15,75.06,0,77,0s3.31,1.15,3.31,2.84S79,5.65,77,5.65,73.65,4.46,73.65,2.84ZM74.3,8h5.58V27.86H74.3Z"/>
<path class="fill" d="M96.84,28.65c-7.78,0-12.56-4.14-12.56-10.69S89.06,7.23,96.84,7.23c5.65,0,9.39,2.45,11,5.48l-5.15,2c-1.15-2.19-3.35-3-5.87-3-4.14,0-7.2,2.06-7.2,6.23s3.06,6.19,7.2,6.19c2.52,0,4.79-.83,6-3.09L108,23.11C106.34,26.2,102.56,28.65,96.84,28.65Z"/>
<path class="fill" d="M111.1,2.84c0-1.69,1.4-2.84,3.38-2.84s3.31,1.15,3.31,2.84-1.37,2.81-3.31,2.81S111.1,4.46,111.1,2.84Zm6.22,25h-5.58V8h5.58Z"/>
<path class="fill" d="M144.79,16.77v7.31a7.32,7.32,0,0,0,.9,3.78H140a4.91,4.91,0,0,1-.71-2.34v0a11.22,11.22,0,0,1-8.25,3.1c-4.25,0-9.75-1.69-9.75-6.84s5.5-6.8,9.75-6.8c3.82,0,6.73,1.4,8.25,3.09V16.74c0-3.67-2.42-5.26-7.17-5.26a13.93,13.93,0,0,0-7.23,1.66l-1.66-3.67a23.41,23.41,0,0,1,10-2.2C140.43,7.27,144.79,10.62,144.79,16.77Zm-5.44,4.72c-1.47-2.34-4.42-2.92-7-2.92-2.3,0-5.69.54-5.69,3.17s3.39,3.2,5.69,3.2c2.56,0,5.51-.61,7-3Z"/>
<path class="fill" d="M150.48,27.86V1.22h5.58V27.86Z"/>
<path class="fill" d="M191.91,22.53H176.69L174,27.86h-6.16l13.36-25.2h6.29l13.36,25.2h-6.23Zm-2.41-4.68L184.28,7.59l-5.22,10.26Z"/>
<path class="fill" d="M203.76,27.86V8h5.58v4.1c1.62-3,5-4.54,8.85-4.54v4.79c-4.32,0-7.67,1.69-8.85,5.19V27.86Z"/>
<path class="fill" d="M237.13,26.71a12.19,12.19,0,0,1-6.52,1.91c-4.17,0-7.41-2.27-7.41-6.73V12.2h-3.68V8h3.68V3.42h5.58V8H237V12.2h-8.17v8.71c0,2,1.51,3.06,3.49,3.06a8.53,8.53,0,0,0,3.71-1Z"/>
<path class="fill" d="M240.15,2.84c0-1.69,1.41-2.84,3.39-2.84s3.31,1.15,3.31,2.84-1.37,2.81-3.31,2.81S240.15,4.46,240.15,2.84Zm6.23,25H240.8V8h5.58Z"/>
<path class="fill" d="M273.52,21.89c0,3.81-3.63,6.76-10.87,6.76-5.15,0-9.68-1.65-12.34-3.92L253,21.42c2.06,1.76,5.51,3,9.8,3,3.16,0,5.58-.57,5.58-2.12s-2.2-2-6.41-2.27c-5.58-.39-10.91-1.76-10.91-6.19,0-3.85,3.6-6.59,11.09-6.59a19.72,19.72,0,0,1,10.47,3l-2.55,3.52a14.48,14.48,0,0,0-8.21-2.23c-2.3,0-5.58.36-5.58,2s2.7,1.77,6.44,2C269,15.8,273.52,17.64,273.52,21.89Z"/>
<path class="fill" d="M292.78,26.71a12.15,12.15,0,0,1-6.51,1.91c-4.18,0-7.42-2.27-7.42-6.73V12.2h-3.67V8h3.67V3.42h5.58V8h8.17V12.2h-8.17v8.71c0,2,1.51,3.06,3.49,3.06a8.53,8.53,0,0,0,3.71-1Z"/>
<path class="fill" d="M333.6,20.23c0,5-4.71,8.42-13.64,8.42-6.37,0-11.55-1.8-15.4-5.07l3.31-3.93c3.09,2.85,7.09,4.18,12.24,4.18s7.7-1,7.7-3.06-2.59-2.66-8.39-3.17c-7.2-.61-13.89-2.19-13.89-7.59s5.61-8.14,13.39-8.14c5.51,0,10.26,1.37,13.46,3.85l-3.17,4c-2.77-2.13-6.19-3-10.29-3-3.42,0-7.6.58-7.6,2.88s3.6,2.38,8.61,2.78C328,13,333.6,14.69,333.6,20.23Z"/>
<path class="fill" d="M361,16.38V27.86h-5.58V16.74c0-3.24-1.73-5-5-5a7.73,7.73,0,0,0-7,4.22V27.86h-5.58V1.22h5.58v10.3C345,8.89,348.19,7.31,352,7.31,357.94,7.31,361,11.09,361,16.38Z"/>
<path class="fill" d="M365.22,18c0-6.62,4.82-10.69,12.67-10.69S390.56,11.34,390.56,18s-4.86,10.69-12.67,10.69S365.22,24.55,365.22,18Zm20,0c0-4.14-3.09-6.15-7.3-6.15s-7.27,2-7.27,6.15,3.09,6.16,7.27,6.16S385.19,22.06,385.19,18Z"/>
<path class="fill" d="M400.6,24.62V35.06H395V8h5.58v3.2a10.44,10.44,0,0,1,8.64-4c6.3,0,10.69,4.18,10.69,10.66s-4.39,10.65-10.69,10.65A10.44,10.44,0,0,1,400.6,24.62Zm0-9.47V20.7a8.63,8.63,0,0,0,7.2,3.24c4.32,0,6.76-2.13,6.76-6s-2.44-6-6.76-6A8.63,8.63,0,0,0,400.64,15.15Z"/>
</svg>