<?xml version="1.0" standalone="no"?>
<!DOCTYPE svg PUBLIC "-//W3C//DTD SVG 1.1//EN" "http://www.w3.org/Graphics/SVG/1.1/DTD/svg11.dtd" >
<svg xmlns="http://www.w3.org/2000/svg" xmlns:xlink="http://www.w3.org/1999/xlink" version="1.1">
<metadata></metadata>
<defs>
<font id="webfont1" horiz-adv-x="1519" >
<font-face units-per-em="2048" ascent="1536" descent="-512" />
<missing-glyph horiz-adv-x="500" />
<glyph unicode="&#xfb01;" horiz-adv-x="1503" d="M45 1020v92h231v133q0 152 96.5 231.5t235.5 79.5q197 0 320 -108l-51 -68q-109 93 -261 93q-102 0 -168.5 -55.5t-66.5 -162.5v-143h532v-92h-532v-1020h-105v1020h-231zM1141 1378q0 33 24.5 55.5t61.5 22.5t60.5 -21.5t23.5 -56.5t-23.5 -57.5t-60.5 -22.5t-61.5 22.5 t-24.5 57.5zM1176 0v1112h104v-1112h-104z" />
<glyph unicode="&#xfb02;" horiz-adv-x="1507" d="M45 1020v92h231v133q0 152 96.5 231.5t235.5 79.5q197 0 320 -108l-51 -68q-109 93 -261 93q-102 0 -168.5 -55.5t-66.5 -162.5v-143h532v-92h-532v-1020h-105v1020h-231zM1176 0v1516h104v-1516h-104z" />
<glyph horiz-adv-x="0" />
<glyph unicode="&#xd;" horiz-adv-x="681" />
<glyph unicode="!" horiz-adv-x="598" d="M207 65.5q0 34.5 23.5 58t62.5 23.5t62.5 -23.5t23.5 -58t-23.5 -58t-62.5 -23.5t-62.5 23.5t-23.5 58zM227 1434h127l-18 -1069h-90z" />
<glyph unicode="&#x22;" horiz-adv-x="837" d="M193 956v560h94v-560h-94zM551 956v560h94v-560h-94z" />
<glyph unicode="#" horiz-adv-x="1937" d="M121 426v84h356l125 440h-409v84h434l114 400h97l-115 -400h666l114 400h96l-114 -400h332v-84h-355l-127 -440h410v-84h-434l-121 -426h-96l120 426h-665l-121 -426h-96l121 426h-332zM573 510h666l127 440h-668z" />
<glyph unicode="$" horiz-adv-x="1777" d="M117 305l78 74q238 -262 671 -281v592q-102 10 -178 20.5t-162 29t-145 44t-110.5 62.5t-77 88t-25.5 115q0 125 101.5 214t256 129t340.5 42v192h97v-194q393 -20 620 -246l-80 -68q-190 195 -540 217v-553q135 -12 231 -26.5t189.5 -41t149.5 -64.5t91 -95t35 -135 q0 -186 -184.5 -301t-511.5 -119v-213h-97v213q-489 20 -749 305zM279 1051q0 -68 43 -115t131 -74.5t180 -42t233 -26.5v544q-145 -2 -272 -28.5t-221 -93t-94 -164.5zM963 96q279 4 433 89t154 229q0 47 -16 82.5t-54 62.5t-83 45.5t-118 32.5t-142.5 24.5t-173.5 20.5 v-586z" />
<glyph unicode="%" horiz-adv-x="1818" d="M96 1151q0 131 94.5 218t244 87t243.5 -87t94 -218t-94 -219t-243.5 -88t-244 88t-94.5 219zM184 1151q0 -102 70.5 -164.5t179.5 -62.5q111 0 181.5 62.5t70.5 164.5t-70.5 164.5t-181.5 62.5q-109 0 -179.5 -62.5t-70.5 -164.5zM301 0l1114 1434h105l-1114 -1434h-105z M1047 285q0 131 94 218t243.5 87t243.5 -87t94 -218t-94 -219.5t-243.5 -88.5t-243.5 88.5t-94 219.5zM1135 284.5q0 -102.5 70 -165t179 -62.5q111 0 181.5 62.5t70.5 165t-70.5 165t-181.5 62.5q-109 0 -179 -62.5t-70 -165z" />
<glyph unicode="&#x26;" horiz-adv-x="1816" d="M143 426q0 137 86 242.5t236 154.5q-145 127 -146 279q0 168 140.5 270.5t368 102.5t373 -101.5t214.5 -267.5l-94 -39q-133 311 -496 311q-182 0 -288.5 -74.5t-106.5 -197.5q0 -68 42 -130.5t90 -101t147 -108.5q18 -12 26 -18l666 -474q121 150 121 394h104 q-4 -276 -143 -453l305 -215h-168l-205 143q-207 -184 -584 -184q-301 0 -494.5 133t-193.5 334zM254 432q0 -172 164 -273.5t420 -101.5q319 0 493 146l-688 489q-45 31 -100 70q-289 -90 -289 -330z" />
<glyph unicode="'" horiz-adv-x="479" d="M193 956v560h94v-560h-94z" />
<glyph unicode="(" horiz-adv-x="860" d="M139 594q0 315 159 550.5t433 323.5l39 -79q-248 -84 -391 -293t-143 -502t143 -502t391 -293l-39 -80q-274 88 -433 324t-159 551z" />
<glyph unicode=")" horiz-adv-x="860" d="M92 -201q248 84 390.5 293t142.5 502t-142.5 502t-390.5 293l37 79q276 -88 435 -323.5t159 -550.5t-160 -551t-434 -324z" />
<glyph unicode="*" horiz-adv-x="1144" d="M143 1024v92l379 -16l-203 317l78 47l176 -340l175 340l79 -47l-202 -317l376 16v-92l-376 16l202 -319l-79 -45l-175 338l-176 -338l-78 45l203 319z" />
<glyph unicode="+" d="M197 565v90h518v469h94v-469h516v-90h-516v-469h-94v469h-518z" />
<glyph unicode="," horiz-adv-x="501" d="M170 65.5q0 34.5 23.5 58t62.5 23.5t63.5 -25.5t24.5 -64.5q0 -172 -121 -321l-41 28q84 119 94 226q-6 -6 -26 -6q-35 0 -57.5 23.5t-22.5 58z" />
<glyph unicode="-" horiz-adv-x="1222" d="M188 563v94h846v-94h-846z" />
<glyph unicode="." horiz-adv-x="489" d="M160 65.5q0 34.5 23.5 58t62.5 23.5t62.5 -23.5t23.5 -58t-23.5 -58t-62.5 -23.5t-62.5 23.5t-23.5 58z" />
<glyph unicode="/" horiz-adv-x="1355" d="M72 -205l1095 1802h119l-1096 -1802h-118z" />
<glyph unicode="0" horiz-adv-x="1918" d="M145 717q0 350 215 555t600.5 205t600.5 -205t215 -555t-215 -555t-600.5 -205t-600.5 205t-215 555zM254 716.5q0 -315.5 189.5 -487.5t517 -172t516 172t188.5 487.5t-188.5 487.5t-516 172t-517 -172t-189.5 -487.5z" />
<glyph unicode="1" horiz-adv-x="886" d="M72 1090v96q236 35 477 248h82v-1434h-107v1300q-195 -170 -452 -210z" />
<glyph unicode="2" horiz-adv-x="1658" d="M111 0v59q37 176 229 330t512 273q115 43 176.5 66.5t141 63t118.5 73.5t67.5 81t28.5 103q0 154 -159.5 242.5t-382.5 88.5q-410 0 -600 -319l-84 53q86 162 267 261.5t419 99.5q170 0 316.5 -48.5t240.5 -147.5t94 -228q0 -86 -40 -156t-128 -127t-181 -99t-243 -96 q-590 -215 -659 -477h1286v-96h-1419z" />
<glyph unicode="3" horiz-adv-x="1710" d="M102 315l95 52q78 -145 245.5 -228.5t413.5 -83.5q264 0 431 93.5t167 253t-167 235.5t-460 76h-176v96h176q160 0 285 27.5t207 94t82 165.5q0 131 -163 207.5t-386 76.5q-446 0 -610 -274l-92 49q193 319 690 320q281 0 476 -102.5t195 -272.5q0 -143 -121.5 -233.5 t-281.5 -100.5q80 -8 155.5 -31.5t146.5 -65.5t114 -113t43 -159q0 -199 -200 -318.5t-513 -119.5q-276 0 -465.5 95.5t-286.5 260.5z" />
<glyph unicode="4" horiz-adv-x="1742" d="M70 381v78l1175 975h92v-959h324v-94h-324v-381h-106v381h-1161zM231 475h1000v823z" />
<glyph unicode="5" horiz-adv-x="1701" d="M123 330l84 55q88 -154 261 -242t411 -88q268 0 436 101.5t168 271.5q0 182 -169 278.5t-460 96.5q-295 0 -584 -125l-86 35l123 721h1135v-97h-1047l-98 -567q254 123 584 123q322 0 516 -118t194 -349q0 -203 -196.5 -336t-515.5 -133q-262 0 -459 102.5t-297 270.5z " />
<glyph unicode="6" horiz-adv-x="1798" d="M145 717q0 348 215 554t596 206q432 0 654 -260l-84 -64q-199 229 -565 229q-326 0 -516.5 -171t-190.5 -494q0 -92 14 -162q104 154 305 248t449 94q287 0 468 -119t181 -346q0 -209 -196.5 -342t-518.5 -133q-381 0 -596 206t-215 554zM293 461q68 -201 240.5 -305.5 t422.5 -104.5q272 0 438.5 104.5t166.5 276.5q0 184 -152 278.5t-405 94.5q-217 0 -411 -92t-300 -252z" />
<glyph unicode="7" d="M55 1337v97h1418v-80l-861 -1354h-131l856 1337h-1282z" />
<glyph unicode="8" horiz-adv-x="1806" d="M145 385q0 92 44 165t117 116t151 67.5t157 32.5q-166 12 -289.5 99t-123.5 233q0 174 201.5 276.5t500.5 102.5q195 0 353.5 -44t255 -132.5t96.5 -202.5q0 -145 -124 -232.5t-290 -99.5q80 -8 158 -32.5t150.5 -67.5t116.5 -116t44 -165q0 -193 -210 -310.5 t-550 -117.5t-549 118t-209 310zM256 383q0 -150 178 -241t469 -91q293 0 470 89t177 243q0 162 -174 248t-473 86t-473 -86t-174 -248zM309 1096q0 -100 85 -168t213 -95.5t296 -27.5t297 27.5t214 95t85 168.5q0 137 -171 211.5t-425 74.5q-252 0 -423 -74.5t-171 -211.5z " />
<glyph unicode="9" horiz-adv-x="1798" d="M129 1001q0 209 196.5 342.5t518.5 133.5q381 0 596 -206t215 -554t-215 -554t-596 -206q-430 0 -654 262l84 64q197 -231 566 -232q324 0 514 172t190 494q0 90 -14 162q-104 -154 -304 -247t-448 -93q-287 0 -468 117.5t-181 344.5zM238 1001q0 -184 151.5 -277 t407.5 -93q217 0 410.5 91t299.5 249q-68 201 -239.5 306t-423.5 105q-274 0 -440 -103t-166 -278z" />
<glyph unicode=":" horiz-adv-x="489" d="M160 65.5q0 34.5 23.5 58t62.5 23.5t62.5 -23.5t23.5 -58t-23.5 -58t-62.5 -23.5t-62.5 23.5t-23.5 58zM160 1048.5q0 34.5 23.5 58t62.5 23.5t62.5 -23.5t23.5 -58t-23.5 -58t-62.5 -23.5t-62.5 23.5t-23.5 58z" />
<glyph unicode=";" horiz-adv-x="491" d="M160 65.5q0 34.5 23.5 58t62.5 23.5t63.5 -25.5t24.5 -64.5q0 -172 -121 -321l-41 28q84 119 94 226q-6 -6 -26 -6q-35 0 -57.5 23.5t-22.5 58zM160 1048.5q0 34.5 23.5 58t62.5 23.5t62.5 -23.5t23.5 -58t-23.5 -58t-62.5 -23.5t-62.5 23.5t-23.5 58z" />
<glyph unicode="&#x3c;" d="M209 561l1044 -467v101l-934 413l934 416v98l-1044 -467v-94z" />
<glyph unicode="=" d="M197 332v98h1128v-98h-1128zM197 799v96h1128v-96h-1128z" />
<glyph unicode="&#x3e;" d="M268 94l1045 467v94l-1045 467v-98l934 -416l-934 -413v-101z" />
<glyph unicode="?" horiz-adv-x="1499" d="M86 1124q94 162 275.5 256.5t418.5 94.5q252 0 432.5 -107.5t180.5 -294.5q0 -176 -167 -276.5t-442 -116.5v-287h-96v365q270 12 433 90t163 225q0 145 -147.5 226t-360.5 81q-420 0 -604 -307zM655 65.5q0 34.5 23.5 58t62.5 23.5t62.5 -23.5t23.5 -58t-23.5 -58 t-62.5 -23.5t-62.5 23.5t-23.5 58z" />
<glyph unicode="@" horiz-adv-x="2275" d="M141 555q0 373 279.5 608.5t709.5 235.5q432 0 712 -235.5t280 -608.5q0 -254 -78 -378t-203 -124q-102 0 -169.5 72t-78.5 186q-66 -129 -209 -206.5t-315 -77.5q-242 0 -401.5 145t-159.5 385t159.5 384t401.5 144q172 0 314.5 -77.5t207.5 -206.5l21 243h71v-663 q0 -145 49.5 -206.5t118.5 -61.5q88 0 146.5 108.5t58.5 333.5q0 240 -128 420t-336 271t-461.5 91t-461.5 -91t-335 -271t-127 -420t127 -420t335 -271t461 -91q356 0 590 168l33 -52q-231 -176 -623 -176q-430 0 -709.5 234.5t-279.5 607.5zM604 555q0 -205 135 -324.5 t348 -119.5q168 0 302.5 79.5t199.5 229.5v272q-66 147 -200 227t-302 80q-213 0 -348 -118.5t-135 -325.5z" />
<glyph unicode="A" horiz-adv-x="1814" d="M45 0l803 1434h119l802 -1434h-118l-238 424h-1014l-235 -424h-119zM453 522h907l-455 813z" />
<glyph unicode="B" horiz-adv-x="1890" d="M256 0v1434h946q207 0 337 -92.5t130 -264.5q0 -133 -83 -227.5t-230 -108.5q395 -23 395 -352q0 -195 -139 -292t-389 -97h-967zM362 98h844q434 0 434 297q0 291 -434 291h-844v-588zM362 784h828q168 0 269.5 70t101.5 211q0 139 -100.5 205.5t-270.5 66.5h-828v-553z " />
<glyph unicode="C" horiz-adv-x="1816" d="M145 717q0 348 227.5 554t626.5 206q494 0 713 -334l-100 -51q-183 284 -612 284h-3q-342 0 -542.5 -172t-200.5 -487.5t200.5 -487.5t542.5 -172q434 0 615 285l100 -51q-219 -334 -717 -334q-397 0 -623.5 206t-226.5 554z" />
<glyph unicode="D" horiz-adv-x="1918" d="M256 0v1434h668q389 0 619.5 -195t230.5 -522.5t-230.5 -522t-619.5 -194.5h-668zM362 100h556q336 0 541.5 162t205.5 455t-206 455.5t-541 162.5h-556v-1235z" />
<glyph unicode="E" horiz-adv-x="1734" d="M256 0v1434h1329v-99h-1223v-555h1049v-100h-1049v-580h1244v-100h-1350z" />
<glyph unicode="F" horiz-adv-x="1667" d="M256 0v1434h1327v-99h-1221v-585h1049v-101h-1049v-649h-106z" />
<glyph unicode="G" horiz-adv-x="1941" d="M145 717q0 350 228.5 555t632.5 205q483 0 720 -306l-92 -63q-203 268 -628 268q-348 0 -550 -172t-202 -487.5t204 -487.5t554 -172q244 0 426 89.5t262 261.5v217h-705v98h811v-344q-82 -188 -292.5 -305t-503.5 -117q-406 0 -635.5 205t-229.5 555z" />
<glyph unicode="H" horiz-adv-x="1990" d="M256 0v1434h106v-656h1266v656h107v-1434h-107v676h-1266v-676h-106z" />
<glyph unicode="I" horiz-adv-x="618" d="M256 0v1434h106v-1434h-106z" />
<glyph unicode="J" horiz-adv-x="1390" d="M51 195l88 59q129 -197 428 -197q250 0 371 144.5t121 388.5v844h106v-850q0 -131 -33.5 -242t-103.5 -198t-187.5 -137t-273.5 -50q-360 0 -516 238z" />
<glyph unicode="K" horiz-adv-x="1792" d="M256 0v1434h106v-895l1199 895h153l-739 -562l786 -872h-137l-737 811l-525 -395v-416h-106z" />
<glyph unicode="L" horiz-adv-x="1548" d="M256 0v1434h106v-1334h1133v-100h-1239z" />
<glyph unicode="M" horiz-adv-x="2277" d="M256 0v1434h117l768 -926l768 926h112v-1434h-106v1282l-772 -930h-8l-775 930v-1282h-104z" />
<glyph unicode="N" horiz-adv-x="1990" d="M256 0v1434h119l1255 -1276v1276h105v-1434h-95l-1280 1298v-1298h-104z" />
<glyph unicode="O" horiz-adv-x="2000" d="M145 717q0 350 227.5 555t629 205t629 -205t227.5 -555t-227.5 -555t-629 -205t-629 205t-227.5 555zM254 717q0 -311 201.5 -485.5t545.5 -174.5q342 0 544 174.5t202 485.5t-202 485t-544 174q-344 0 -545.5 -174t-201.5 -485z" />
<glyph unicode="P" horiz-adv-x="1826" d="M256 0v1434h938q246 0 389 -119t143 -322q0 -205 -143 -323.5t-389 -118.5h-832v-551h-106zM362 649h826q201 0 315.5 90t114.5 254t-114.5 253t-315.5 89h-826v-686z" />
<glyph unicode="Q" horiz-adv-x="2000" d="M145 717q0 350 227.5 555t629 205t629 -205t227.5 -555q0 -211 -87.5 -373t-248.5 -260l221 -248l-70 -63l-239 266q-186 -82 -433 -82q-401 0 -628.5 205t-227.5 555zM254 717q0 -311 201.5 -485.5t545.5 -174.5q207 0 359 64l-254 282l72 64l272 -303q297 172 297 553 q0 311 -202 485t-544 174q-344 0 -545.5 -174t-201.5 -485z" />
<glyph unicode="R" horiz-adv-x="1886" d="M256 0v1434h940q242 0 387.5 -115t145.5 -313q0 -186 -126 -299t-339 -129l510 -578h-140l-501 575h-768v-575h-109zM362 674h828q201 0 315.5 86t114.5 246q0 158 -114.5 243.5t-315.5 85.5h-828v-661z" />
<glyph unicode="S" horiz-adv-x="1765" d="M113 264l77 76q256 -283 742 -283q289 0 451.5 93.5t162.5 242.5q0 139 -154.5 199.5t-496.5 93.5q-156 14 -273.5 36.5t-228 64.5t-170 114t-59.5 168q0 127 102.5 221t262 140.5t348.5 46.5q455 0 702 -252l-84 -70q-203 217 -614 221h-17q-136 0 -262 -30 q-134 -32 -231 -103.5t-97 -171.5q0 -72 49.5 -123t148.5 -81.5t203.5 -48.5t256.5 -32q172 -14 295 -38.5t225 -67.5t152.5 -112.5t50.5 -168.5q0 -195 -192.5 -318.5t-534.5 -123.5q-252 0 -465 79t-350 228z" />
<glyph unicode="T" horiz-adv-x="1607" d="M51 1337v97h1505v-97h-700v-1337h-106v1337h-699z" />
<glyph unicode="U" horiz-adv-x="1927" d="M227 676v758h107v-752q0 -289 167 -457t464 -168q295 0 461.5 168t166.5 457v752h107v-758q0 -319 -192.5 -519t-542.5 -200q-352 0 -545 199.5t-193 519.5z" />
<glyph unicode="V" horiz-adv-x="1763" d="M45 1434h121l719 -1315l717 1315h116l-778 -1434h-115z" />
<glyph unicode="W" horiz-adv-x="2437" d="M76 1434h117l471 -1299l501 1299h111l500 -1299l473 1299h114l-532 -1434h-111l-499 1303l-502 -1303h-113z" />
<glyph unicode="X" horiz-adv-x="1619" d="M51 0l688 719l-686 715h142l618 -641l617 641h139l-688 -713l690 -721h-141l-621 645l-621 -645h-137z" />
<glyph unicode="Y" horiz-adv-x="1671" d="M49 1434h131l658 -828l655 828h129l-733 -926v-508h-107v508z" />
<glyph unicode="Z" horiz-adv-x="1689" d="M100 0v82l1291 1255h-1254v97h1415v-80l-1290 -1256h1323v-98h-1485z" />
<glyph unicode="[" horiz-adv-x="860" d="M256 -246v1680h514v-86h-422v-1508h422v-86h-514z" />
<glyph unicode="\" horiz-adv-x="1394" d="M70 1597h120l1096 -1802h-121z" />
<glyph unicode="]" horiz-adv-x="860" d="M92 -160h420v1508h-420v86h512v-1680h-512v86z" />
<glyph unicode="^" d="M233 532h111l416 793l418 -793h110l-481 902h-94z" />
<glyph unicode="_" horiz-adv-x="1280" d="M10 -152h1260v-86h-1260v86z" />
<glyph unicode="`" horiz-adv-x="1161" d="M307 1894h172l367 -297h-115z" />
<glyph unicode="a" horiz-adv-x="1525" d="M106 352q0 137 96.5 230.5t221.5 128t262 34.5q182 0 325.5 -67.5t205.5 -179.5v116q0 446 -492 447q-260 0 -469 -139l-49 77q96 68 239 111t293 43q274 0 429 -138t155 -401v-395q0 -129 53 -219h-112q-47 84 -47 201v6q-63 -111 -206 -179.5t-325 -68.5 q-137 0 -262 35t-221.5 128t-96.5 230zM211 352q0 -84 47 -147.5t124 -95t154.5 -46t157.5 -14.5q172 0 317 67.5t208 198.5v76q-63 133 -207 199.5t-318 66.5q-80 0 -157.5 -14t-154.5 -47t-124 -95.5t-47 -148.5z" />
<glyph unicode="b" horiz-adv-x="1630" d="M221 0v1516h105v-648q80 133 226.5 209t334.5 76q285 0 448.5 -164t163.5 -434q0 -268 -164 -432t-448 -164q-188 0 -334.5 76t-226.5 209v-244h-105zM326 358q167 -305 538 -305q250 0 389.5 133t139.5 369t-139.5 370t-389.5 134q-371 0 -538 -305v-396z" />
<glyph unicode="c" horiz-adv-x="1470" d="M133 555q0 276 176 437t488 161q391 0 567 -258l-98 -51q-66 106 -189 160.5t-278 54.5q-258 0 -408.5 -131t-150.5 -373t150.5 -372t408.5 -130q158 0 282.5 55.5t188.5 165.5l100 -47q-172 -270 -573 -270q-311 0 -487.5 162t-176.5 436z" />
<glyph unicode="d" horiz-adv-x="1630" d="M133 555q0 270 163.5 434t448.5 164q186 0 333 -76t229 -209v648h104v-1516h-104v244q-82 -133 -228.5 -209t-333.5 -76q-285 0 -448.5 163t-163.5 433zM240 555q0 -233 139 -367.5t387 -134.5q371 0 541 305v396q-170 305 -541 305q-248 0 -387 -134t-139 -370z" />
<glyph unicode="e" horiz-adv-x="1550" d="M133 555q0 276 174.5 437t483.5 161q297 0 466.5 -153.5t174.5 -426.5q0 -16 -2 -20h-95h-1095q0 -244 149.5 -374t409.5 -130q176 0 300 44t226 143l70 -74q-219 -205 -600 -205q-311 0 -486.5 162t-175.5 436zM244 641h1081q-29 207 -169 314.5t-365 107.5 q-231 0 -376 -109.5t-171 -312.5z" />
<glyph unicode="f" horiz-adv-x="948" d="M45 1020v92h231v133q0 152 96.5 231.5t235.5 79.5q197 0 320 -108l-51 -68q-109 92 -261 93q-102 0 -168.5 -56t-66.5 -162v-143h532v-92h-532v-1020h-105v1020h-231z" />
<glyph unicode="g" horiz-adv-x="1630" d="M133 555q0 270 164 434t448 164q186 0 333 -76t229 -209v244h104v-1010q0 -270 -176 -411.5t-459 -141.5q-313 0 -524 156l51 80q205 -141 465 -141q258 0 398.5 115.5t140.5 334.5v150q-80 -131 -229.5 -208t-332.5 -77q-285 0 -448.5 163t-163.5 433zM240 555 q0 -233 139 -367.5t387 -134.5q371 0 541 305v396q-170 305 -541 305q-248 0 -387 -134t-139 -370z" />
<glyph unicode="h" horiz-adv-x="1605" d="M221 0v1516h105v-660q78 139 221.5 218t329.5 79q258 0 389 -145.5t131 -386.5v-621h-105v614q0 215 -107.5 330t-324.5 115q-379 0 -534 -330v-729h-105z" />
<glyph unicode="i" horiz-adv-x="555" d="M193 1378q0 33 24.5 55.5t61 22.5t60 -21.5t23.5 -56.5t-23.5 -57.5t-60 -22.5t-61 22.5t-24.5 57.5zM227 0v1112h105v-1112h-105z" />
<glyph unicode="j" horiz-adv-x="555" d="M-127 -412l35 84q45 -26 123 -26h6q90 0 139 57t49 156v1253h105v-1270q0 -137 -76 -215t-199 -78q-113 0 -182 39zM193 1376q0 33 24.5 55.5t61 22.5t60 -21.5t23.5 -56.5q0 -33 -23.5 -55.5t-60 -22.5t-61 22.5t-24.5 55.5z" />
<glyph unicode="k" horiz-adv-x="1400" d="M221 0v1516h105v-1074l868 670h141l-555 -434l594 -678h-129l-547 618l-372 -284v-334h-105z" />
<glyph unicode="l" horiz-adv-x="559" d="M227 0v1516h105v-1516h-105z" />
<glyph unicode="m" horiz-adv-x="2525" d="M221 0v1112h105v-254q68 135 204 215t308 80q190 0 304.5 -91t155.5 -249q63 160 209 250t326 90q248 0 365.5 -145.5t117.5 -380.5v-627h-102v621q0 205 -98.5 321.5t-303.5 116.5q-170 0 -298 -88t-199 -252q6 -47 6 -92v-627h-104v621q0 205 -98.5 321.5t-303.5 116.5 q-342 0 -489 -326v-733h-105z" />
<glyph unicode="n" horiz-adv-x="1605" d="M221 0v1112h105v-256q78 139 221 218t330 79q258 0 389 -145.5t131 -386.5v-621h-105v614q0 215 -107.5 330t-324.5 115q-379 0 -534 -330v-729h-105z" />
<glyph unicode="o" horiz-adv-x="1595" d="M133 555q0 276 176 437t489.5 161t489.5 -161t176 -437t-176 -437t-489.5 -161t-489.5 161t-176 437zM240 555q0 -242 151.5 -372t407.5 -130t407.5 130t151.5 372t-151.5 373t-407.5 131t-407.5 -131t-151.5 -373z" />
<glyph unicode="p" horiz-adv-x="1630" d="M221 -410v1522h105v-244q80 133 226 209t335 76q285 0 448.5 -164t163.5 -432q0 -270 -163.5 -434t-448.5 -164q-188 0 -334.5 76t-226.5 209v-654h-105zM326 358q168 -305 538 -305q250 0 389.5 134.5t139.5 370t-139.5 368.5t-389.5 133q-371 0 -538 -305v-396z" />
<glyph unicode="q" horiz-adv-x="1630" d="M133 557q0 270 164 433t448 163q186 0 333 -76t229 -209v244h104v-1522h-104v654q-82 -133 -229 -209t-333 -76q-285 0 -448.5 164t-163.5 434zM240 557q0 -236 139 -370t387 -134q371 0 541 305v396q-170 305 -541 305q-248 0 -387 -134t-139 -368z" />
<glyph unicode="r" horiz-adv-x="937" d="M221 0v1112h105v-293q66 143 225.5 227t349.5 84v-94q-199 0 -353.5 -90t-221.5 -260v-686h-105z" />
<glyph unicode="s" horiz-adv-x="1409" d="M102 205l72 61q203 -219 561 -219q215 0 341 68.5t126 183.5q0 109 -120.5 158t-374.5 73q-123 10 -212 27.5t-174 49.5t-130.5 88.5t-45.5 133.5q0 152 160 238t397 86q166 0 306.5 -53t232.5 -139l-70 -70q-174 172 -473 174h-17q-97 -1 -187 -21q-98 -22 -171 -77.5 t-73 -132.5q0 -55 38 -95.5t111.5 -63t150 -34.5t189.5 -20q272 -23 420 -95.5t148 -218.5q0 -152 -151.5 -251t-422.5 -99q-399 0 -631 248z" />
<glyph unicode="t" horiz-adv-x="956" d="M45 1018v94h231v258h105v-258h534v-94h-534v-744q0 -106 69.5 -163.5t176.5 -57.5q117 0 256 86l41 -76q-147 -104 -312 -104q-141 0 -238.5 78t-97.5 223v758h-231z" />
<glyph unicode="u" horiz-adv-x="1605" d="M209 492v620h104v-614q0 -213 108.5 -328t323.5 -115q379 0 537 328v729h104v-1110h-104v256q-78 -141 -222.5 -220t-330.5 -79q-258 0 -389 145.5t-131 387.5z" />
<glyph unicode="v" horiz-adv-x="1423" d="M57 1112h119l539 -1003l536 1003h115l-598 -1112h-113z" />
<glyph unicode="w" horiz-adv-x="1998" d="M78 1112h110l375 -989l385 989h105l385 -989l377 989h106l-428 -1112h-107l-385 993l-391 -993h-106z" />
<glyph unicode="x" horiz-adv-x="1312" d="M63 0l527 557l-524 555h133l458 -489l461 489h131l-524 -553l526 -559h-133l-463 492l-462 -492h-130z" />
<glyph unicode="y" horiz-adv-x="1433" d="M57 1112h119l545 -922l541 922h114l-893 -1522h-116l297 492z" />
<glyph unicode="z" horiz-adv-x="1343" d="M92 -2v78l975 942h-946v94h1100v-78l-975 -942h999v-94h-1153z" />
<glyph unicode="{" horiz-adv-x="897" d="M45 561v70q150 0 250 86t100 295q0 199 87 310.5t253 111.5h72v-86h-62q-131 0 -193.5 -96.5t-62.5 -256.5q0 -188 -92 -291.5t-235 -107.5q143 -8 235 -109.5t92 -289.5q0 -162 62.5 -259.5t193.5 -97.5h62v-86h-72q-164 0 -252 113t-88 311q0 209 -101 296t-249 87z " />
<glyph unicode="|" horiz-adv-x="579" d="M240 -246v1680h100v-1680h-100z" />
<glyph unicode="}" horiz-adv-x="897" d="M92 -160h62q129 0 192.5 97.5t63.5 259.5q0 188 91 289.5t236 109.5q-143 4 -235 107.5t-92 291.5q0 160 -63.5 256.5t-192.5 96.5h-62v86h70q166 0 253 -112t87 -310q0 -209 100 -295t250 -86v-70q-147 0 -248.5 -87t-101.5 -296q0 -199 -88 -311.5t-252 -112.5h-70v86z " />
<glyph unicode="~" d="M182 559q90 164 301 164q106 0 283.5 -65.5t273.5 -65.5q166 0 234 125l69 -55q-90 -164 -303 -164q-104 0 -281 65.5t-274 65.5q-166 0 -233 -125z" />
<glyph unicode="&#xa1;" horiz-adv-x="598" d="M207 958.5q0 34.5 23.5 58t62.5 23.5t62.5 -23.5t23.5 -58t-23.5 -58t-62.5 -23.5t-62.5 23.5t-23.5 58zM227 -410l19 1069h90l18 -1069h-127z" />
<glyph unicode="&#xa2;" horiz-adv-x="1495" d="M143 717q0 248 158 394t440 161v162h90v-160q358 -12 529 -260l-86 -43q-135 201 -443 211v-930q305 8 445 217l86 -43q-166 -254 -531 -266v-160h-90v162q-283 14 -440.5 160.5t-157.5 394.5zM240 717q0 -215 132 -334t369 -131v930q-238 -12 -369.5 -131t-131.5 -334z " />
<glyph unicode="&#xa3;" horiz-adv-x="1503" d="M123 0v94h235v590h-235v88h235v150q0 233 133.5 394t387.5 161q141 0 265 -59.5t193 -157.5l-65 -62q-145 184 -389 184q-205 0 -312.5 -129t-107.5 -338v-143h772v-88h-772v-590h891v-94h-996h-235z" />
<glyph unicode="&#xa4;" horiz-adv-x="1646" d="M174 117l205 207q-164 152 -164 405q0 236 139 381l-180 182l59 58l187 -183q158 117 403 117q248 0 404 -119l186 185l62 -58l-183 -182q142 -148 142 -381q0 -254 -168 -405l209 -207l-62 -58l-215 213q-152 -98 -375 -98t-374 98l-216 -213zM309 729 q0 -225 139.5 -345t375 -120t374.5 120t139 345q0 227 -138 347t-375.5 120t-376 -120t-138.5 -347z" />
<glyph unicode="&#xa5;" horiz-adv-x="1677" d="M82 1434h131l629 -775l626 775h129l-639 -783h437v-69h-494l-8 -11v-188h502v-70h-502v-313h-107v313h-499v70h499v188l-8 11h-491v69h434z" />
<glyph unicode="&#xa6;" horiz-adv-x="579" d="M240 -246v678h100v-678h-100zM240 766v668h100v-668h-100z" />
<glyph unicode="&#xa7;" horiz-adv-x="1486" d="M131 -41l74 61q197 -219 557 -219q217 0 343 69t126 183q0 109 -121 158t-375 74q-119 10 -211 28.5t-176 52t-129 90t-45 134.5q0 106 80 187t213 118q-279 70 -279 258q0 152 160 238t397 86q166 0 305.5 -53.5t231.5 -139.5l-65 -70q-180 172 -472 175 q-180 2 -316 -57.5t-136 -174.5q0 -55 37 -95t111.5 -62.5t150.5 -35t188 -20.5q272 -23 421 -95.5t149 -217.5q0 -104 -70 -185t-203 -124q258 -76 258 -261q0 -152 -151.5 -251t-423.5 -99q-401 0 -629 248zM279 602q0 -57 37.5 -99t110.5 -66.5t154 -39t187 -22.5 q141 -16 150 -19q152 25 238.5 95.5t86.5 164.5q0 111 -122 163t-371 75q-57 4 -86 8q-162 -16 -273.5 -86t-111.5 -174z" />
<glyph unicode="&#xa8;" horiz-adv-x="1155" d="M240 1706q0 31 21.5 52.5t56 21.5t56 -21.5t21.5 -52.5t-21.5 -52.5t-56 -21.5t-56 21.5t-21.5 52.5zM760 1706q0 31 21.5 52.5t56 21.5t56 -21.5t21.5 -52.5t-21.5 -52.5t-56 -21.5t-56 21.5t-21.5 52.5z" />
<glyph unicode="&#xa9;" horiz-adv-x="1998" d="M145 717q0 348 227.5 554t627 206t627.5 -206t228 -554t-228 -554t-627.5 -206t-627 206t-227.5 554zM203 717q0 -332 216 -518.5t580.5 -186.5t580.5 186.5t216 518.5t-215 518t-581.5 186t-581.5 -186t-215 -518zM418 719q0 242 157.5 382t423.5 140q176 0 308.5 -69.5 t212.5 -188.5l-80 -41q-143 217 -436 217q-223 0 -358.5 -113.5t-135.5 -326.5q0 -211 135 -324.5t359 -113.5q297 0 442 223l80 -43q-174 -264 -527 -264q-266 0 -423.5 141t-157.5 381z" />
<glyph unicode="&#xaa;" horiz-adv-x="1171" d="M135 928q0 92 65.5 154.5t151.5 86t183 23.5q125 0 219 -44t133 -124v84q0 299 -330 299q-182 0 -315 -90l-35 57q145 101 360 101q188 0 294 -93.5t106 -271.5v-272q0 -84 43 -148h-86q-37 53 -37 133v8q-37 -80 -132.5 -124.5t-219.5 -44.5q-156 0 -278 65.5 t-122 200.5zM217 927.5q0 -59.5 32 -102.5t85 -63.5t103 -28.5t104 -8q121 0 214 45t132 133v49q-39 90 -132 134t-214 44q-53 0 -103.5 -8t-103.5 -28.5t-85 -63.5t-32 -102.5z" />
<glyph unicode="&#xab;" horiz-adv-x="1243" d="M111 610l442 -434h121l-443 434l443 434h-121zM532 610l443 -434h121l-443 434l443 434h-121z" />
<glyph unicode="&#xac;" d="M199 561v92h1136v-520h-98v428h-1038z" />
<glyph unicode="&#xad;" horiz-adv-x="1222" d="M188 563v94h846v-94h-846z" />
<glyph unicode="&#xae;" horiz-adv-x="1196" d="M147 1038q0 186 125 301t326 115t326 -114.5t125 -301.5q0 -188 -125 -302.5t-326 -114.5t-326 114.5t-125 302.5zM193 1038q0 -172 110.5 -273t294.5 -101t293.5 101t109.5 273q0 170 -110.5 272.5t-292.5 102.5q-184 0 -294.5 -102.5t-110.5 -272.5zM389 823v434h281 q78 0 123 -36t45 -97q0 -55 -38 -91t-104 -42l152 -168h-70l-149 166h-183v-166h-57zM446 1036h205q125 0 125 86t-125 86h-205v-172z" />
<glyph unicode="&#xaf;" horiz-adv-x="1146" d="M201 1655v90h747v-90h-747z" />
<glyph unicode="&#xb0;" horiz-adv-x="890" d="M137 1176q0 121 86 200.5t223 79.5q135 0 221.5 -80t86.5 -200q0 -123 -86.5 -203t-221.5 -80q-137 0 -223 80t-86 203zM221 1175.5q0 -92.5 59.5 -149.5t164 -57t165 57t60.5 149.5t-60.5 149.5t-165 57t-164 -57t-59.5 -149.5z" />
<glyph unicode="&#xb1;" d="M197 53v86h1128v-86h-1128zM197 713v88h516v461h94v-461h518v-88h-518v-461h-94v461h-516z" />
<glyph unicode="&#xb2;" horiz-adv-x="954" d="M76 965v49q37 197 407 344q59 25 79 33t66 28.5t61.5 33.5t40 33.5t32.5 43t8 49.5q0 80 -85 128t-200 48q-215 0 -325 -172l-62 35q57 96 158.5 151.5t232.5 55.5q145 0 253 -66.5t108 -177.5q0 -98 -79 -159.5t-241 -125.5q-328 -129 -360 -260h698v-71h-792z" />
<glyph unicode="&#xb3;" horiz-adv-x="991" d="M78 1151l67 31q88 -172 344 -172q139 0 232.5 52t93.5 136q0 90 -91 135t-241 45h-100v66h100q131 0 216 37t85 116q0 74 -88 116t-211 42q-233 0 -313 -147l-66 34q41 84 145.5 133.5t240.5 49.5q154 0 264 -58.5t110 -158.5q0 -84 -67.5 -137.5t-157.5 -57.5 q102 -12 179 -66.5t77 -154.5q0 -113 -113.5 -182.5t-291.5 -69.5q-152 0 -260.5 57.5t-153.5 153.5z" />
<glyph unicode="&#xb4;" horiz-adv-x="1161" d="M315 1597l369 297h172l-426 -297h-115z" />
<glyph unicode="&#xb6;" horiz-adv-x="1843" d="M100 995q0 203 144.5 321t390.5 118h952v-1434h-96v1343h-340v-1343h-96v555h-420q-248 0 -391.5 116.5t-143.5 323.5zM197 995q0 -166 116.5 -258t323.5 -92h418v698h-418q-207 0 -323.5 -92t-116.5 -256z" />
<glyph unicode="&#xb7;" horiz-adv-x="489" d="M160 577.5q0 34.5 23.5 58t62.5 23.5t62.5 -23.5t23.5 -58t-23.5 -57t-62.5 -22.5t-62.5 22.5t-23.5 57z" />
<glyph unicode="&#xb8;" horiz-adv-x="1159" d="M307 -395l211 319l105 -26l-230 -322z" />
<glyph unicode="&#xb9;" horiz-adv-x="536" d="M55 1583v72q135 20 267 143h59v-835h-78v733q-102 -90 -248 -113z" />
<glyph unicode="&#xba;" horiz-adv-x="1187" d="M139 1069q0 186 121 296t334 110t334 -110t121 -296q0 -188 -121 -297.5t-334 -109.5t-334 110.5t-121 296.5zM219 1069q0 -162 99.5 -249t275.5 -87q178 0 276.5 87t98.5 249t-99.5 248t-275.5 86t-275.5 -86t-99.5 -248z" />
<glyph unicode="&#xbb;" horiz-adv-x="1243" d="M147 176h121l443 434l-443 434h-121l443 -434zM569 176h123l441 434l-441 434h-123l443 -434z" />
<glyph unicode="&#xbc;" horiz-adv-x="1943" d="M55 1221v69q135 20 267 144h59v-834h-78v731q-98 -88 -248 -110zM342 0l887 1434h90l-887 -1434h-90zM993 217v55l649 564h68v-549h174v-70h-174v-217h-76v217h-641zM1104 287h530v450z" />
<glyph unicode="&#xbd;" horiz-adv-x="1976" d="M55 1221v69q135 20 267 144h59v-834h-78v731q-98 -88 -248 -110zM324 0l886 1434h90l-886 -1434h-90zM1098 0v49q37 197 407 344q59 25 79 33t66 28.5t61 34t40 34t33 43t8 48.5q0 80 -85 128.5t-200 48.5q-215 0 -325 -173l-62 35q57 96 158.5 151.5t232.5 55.5 q145 0 253 -66.5t108 -177.5q0 -98 -79 -159.5t-241 -124.5q-328 -129 -360 -260h698v-72h-792z" />
<glyph unicode="&#xbe;" horiz-adv-x="2344" d="M78 786l67 29q86 -170 344 -170q139 0 232.5 52.5t93.5 136.5q0 90 -91 134t-241 44h-100v65h100q131 0 216 37t85 117q0 76 -88 118t-211 42q-231 0 -313 -150l-66 35q41 84 145.5 134t240.5 50q154 0 264 -59.5t110 -159.5q0 -82 -67.5 -135t-157.5 -59 q102 -10 179 -64.5t77 -157.5q0 -111 -113.5 -180.5t-291.5 -69.5q-152 0 -260.5 57.5t-153.5 153.5zM743 0l887 1434h90l-886 -1434h-91zM1395 217v55l649 564h67v-549h175v-70h-175v-217h-75v217h-641zM1505 287h531v450z" />
<glyph unicode="&#xbf;" horiz-adv-x="1499" d="M106 39q0 176 167 276.5t442 116.5v287h96v-365q-268 -12 -431 -90t-163 -225q0 -145 147.5 -226t358.5 -81q422 0 604 307l86 -51q-94 -162 -274.5 -257.5t-417.5 -95.5q-252 0 -433.5 109t-181.5 295zM672 1046.5q0 34.5 23.5 58t62.5 23.5t62.5 -23.5t23.5 -58 t-23.5 -58t-62.5 -23.5t-62.5 23.5t-23.5 58z" />
<glyph unicode="&#xc0;" horiz-adv-x="1814" d="M45 0l803 1434h119l802 -1434h-118l-238 424h-1014l-235 -424h-119zM453 522h907l-455 813zM532 1894h173l366 -297h-115z" />
<glyph unicode="&#xc1;" horiz-adv-x="1814" d="M45 0l803 1434h119l802 -1434h-118l-238 424h-1014l-235 -424h-119zM453 522h907l-455 813zM743 1597l369 297h172l-426 -297h-115z" />
<glyph unicode="&#xc2;" horiz-adv-x="1814" d="M45 0l803 1434h119l802 -1434h-118l-238 424h-1014l-235 -424h-119zM453 522h907l-455 813zM522 1597l326 297h119l325 -297h-125l-260 234l-260 -234h-125z" />
<glyph unicode="&#xc3;" horiz-adv-x="1814" d="M45 0l803 1434h119l802 -1434h-118l-238 424h-1014l-235 -424h-119zM434 1708q88 168 271 168q90 0 211.5 -66.5t197.5 -66.5q125 0 199 123l65 -41q-35 -70 -102.5 -119t-165.5 -49q-90 0 -213 66.5t-199 66.5q-127 0 -196 -123zM453 522h907l-455 813z" />
<glyph unicode="&#xc4;" horiz-adv-x="1814" d="M45 0l803 1434h119l802 -1434h-118l-238 424h-1014l-235 -424h-119zM453 522h907l-455 813zM569 1706q0 31 21.5 52.5t56.5 21.5t56.5 -21.5t21.5 -52.5t-21.5 -52.5t-56.5 -21.5t-56.5 21.5t-21.5 52.5zM1090 1706q0 31 21.5 52.5t56 21.5t56 -21.5t21.5 -52.5 t-21.5 -52.5t-56 -21.5t-56 21.5t-21.5 52.5z" />
<glyph unicode="&#xc5;" horiz-adv-x="1814" d="M45 0l803 1434h119l802 -1434h-118l-238 424h-1014l-235 -424h-119zM453 522h907l-455 813zM662 1798q0 100 70.5 155.5t175 55.5t175 -55.5t70.5 -155.5q0 -102 -70.5 -156.5t-175 -54.5t-175 54.5t-70.5 156.5zM745 1798q0 -72 46.5 -108.5t118 -36.5t117.5 36.5 t46 108.5t-46 108t-117.5 36t-118 -36t-46.5 -108z" />
<glyph unicode="&#xc6;" horiz-adv-x="2811" d="M-4 0l1288 1434h78h1300v-99h-1222v-555h1048v-100h-1048v-580h1243v-100h-1350v397h-850l-356 -397h-131zM569 496h764v850z" />
<glyph unicode="&#xc7;" horiz-adv-x="1816" d="M145 717q0 348 227.5 554t626.5 206q494 0 713 -334l-100 -51q-184 285 -615 284q-342 0 -542.5 -172t-200.5 -487.5t200.5 -487.5t542.5 -172q434 0 615 285l100 -51q-219 -334 -717 -334q-397 0 -623.5 206t-226.5 554zM709 -395l211 319l104 -26l-229 -322z" />
<glyph unicode="&#xc8;" horiz-adv-x="1734" d="M256 0v1434h1329v-99h-1223v-555h1049v-100h-1049v-580h1244v-100h-1350zM537 1894h172l366 -297h-114z" />
<glyph unicode="&#xc9;" horiz-adv-x="1734" d="M256 0v1434h1329v-99h-1223v-555h1049v-100h-1049v-580h1244v-100h-1350zM750 1597l368 297h172l-426 -297h-114z" />
<glyph unicode="&#xca;" horiz-adv-x="1734" d="M256 0v1434h1329v-99h-1223v-555h1049v-100h-1049v-580h1244v-100h-1350zM526 1597h125l260 234l260 -234h125l-325 297h-119z" />
<glyph unicode="&#xcb;" horiz-adv-x="1734" d="M256 0v1434h1329v-99h-1223v-555h1049v-100h-1049v-580h1244v-100h-1350zM573 1706q0 31 21.5 52.5t56.5 21.5t56.5 -21.5t21.5 -52.5t-21.5 -52.5t-56.5 -21.5t-56.5 21.5t-21.5 52.5zM1094 1706q0 31 21.5 52.5t56 21.5t56 -21.5t21.5 -52.5t-21.5 -52.5t-56 -21.5 t-56 21.5t-21.5 52.5z" />
<glyph unicode="&#xcc;" horiz-adv-x="618" d="M-68 1894h174l367 -297h-115zM256 0v1434h106v-1434h-106z" />
<glyph unicode="&#xcd;" horiz-adv-x="618" d="M145 1597l369 297h172l-426 -297h-115zM256 0v1434h106v-1434h-106z" />
<glyph unicode="&#xce;" horiz-adv-x="618" d="M-76 1597h125l260 234l260 -234h125l-325 297h-119zM256 0v1434h106v-1434h-106z" />
<glyph unicode="&#xcf;" horiz-adv-x="618" d="M-31 1706q0 31 22.5 52.5t57.5 21.5t56.5 -21.5t21.5 -52.5t-21.5 -52.5t-56.5 -21.5t-57.5 21.5t-22.5 52.5zM256 0v1434h106v-1434h-106zM492 1706q0 31 21.5 52.5t56 21.5t56 -21.5t21.5 -52.5t-21.5 -52.5t-56 -21.5t-56 21.5t-21.5 52.5z" />
<glyph unicode="&#xd0;" horiz-adv-x="1935" d="M53 686v90h221v658h668q389 0 619.5 -195t230.5 -522.5t-230.5 -522t-619.5 -194.5h-668v686h-221zM381 100h555q336 0 540.5 161t204.5 456q0 297 -204.5 457.5t-540.5 160.5h-555v-559h489v-90h-489v-586z" />
<glyph unicode="&#xd1;" horiz-adv-x="1990" d="M256 0v1434h119l1255 -1276v1276h105v-1434h-95l-1280 1298v-1298h-104zM526 1708q88 168 271 168q90 0 211.5 -66.5t197.5 -66.5q125 0 199 123l65 -41q-35 -70 -102.5 -119t-165.5 -49q-90 0 -213 66.5t-198 66.5q-127 0 -197 -123z" />
<glyph unicode="&#xd2;" horiz-adv-x="2000" d="M145 717q0 350 227.5 555t629 205t629 -205t227.5 -555t-227.5 -555t-629 -205t-629 205t-227.5 555zM254 717q0 -311 201.5 -485.5t545.5 -174.5q342 0 544 174.5t202 485.5t-202 485t-544 174q-344 0 -545.5 -174t-201.5 -485zM627 1894h172l366 -297h-114z" />
<glyph unicode="&#xd3;" horiz-adv-x="2000" d="M145 717q0 350 227.5 555t629 205t629 -205t227.5 -555t-227.5 -555t-629 -205t-629 205t-227.5 555zM254 717q0 -311 201.5 -485.5t545.5 -174.5q342 0 544 174.5t202 485.5t-202 485t-544 174q-344 0 -545.5 -174t-201.5 -485zM838 1597l368 297h172l-426 -297h-114z " />
<glyph unicode="&#xd4;" horiz-adv-x="2000" d="M145 717q0 350 227.5 555t629 205t629 -205t227.5 -555t-227.5 -555t-629 -205t-629 205t-227.5 555zM254 717q0 -311 201.5 -485.5t545.5 -174.5q342 0 544 174.5t202 485.5t-202 485t-544 174q-344 0 -545.5 -174t-201.5 -485zM616 1597h125l260 234l261 -234h124 l-325 297h-119z" />
<glyph unicode="&#xd5;" horiz-adv-x="2000" d="M145 717q0 350 227.5 555t629 205t629 -205t227.5 -555t-227.5 -555t-629 -205t-629 205t-227.5 555zM254 717q0 -311 201.5 -485.5t545.5 -174.5q342 0 544 174.5t202 485.5t-202 485t-544 174q-344 0 -545.5 -174t-201.5 -485zM528 1708q88 168 271 168q90 0 212 -66.5 t197 -66.5q125 0 199 123l66 -41q-35 -70 -102.5 -119t-166.5 -49q-90 0 -213 66.5t-198 66.5q-127 0 -197 -123z" />
<glyph unicode="&#xd6;" horiz-adv-x="2000" d="M145 717q0 350 227.5 555t629 205t629 -205t227.5 -555t-227.5 -555t-629 -205t-629 205t-227.5 555zM254 717q0 -311 201.5 -485.5t545.5 -174.5q342 0 544 174.5t202 485.5t-202 485t-544 174q-344 0 -545.5 -174t-201.5 -485zM664 1706q0 31 21.5 52.5t56 21.5 t56 -21.5t21.5 -52.5t-21.5 -52.5t-56 -21.5t-56 21.5t-21.5 52.5zM1184 1706q0 31 21.5 52.5t56 21.5t56 -21.5t21.5 -52.5t-21.5 -52.5t-56 -21.5t-56 21.5t-21.5 52.5z" />
<glyph unicode="&#xd7;" horiz-adv-x="1523" d="M289 209l403 403l-403 406l69 67l404 -403l405 403l68 -67l-406 -404l406 -405l-68 -70l-407 406l-404 -404z" />
<glyph unicode="&#xd8;" horiz-adv-x="2000" d="M145 717q0 350 227.5 555t628.5 205q264 0 463 -97l189 240h116l-225 -285q313 -203 314 -618q0 -350 -227.5 -555t-629.5 -205q-266 0 -464 96l-189 -239h-117l224 284q-309 203 -310 619zM254 717q0 -358 266 -535l877 1114q-166 80 -396 80q-344 0 -545.5 -174 t-201.5 -485zM602 137q168 -80 399 -80q342 0 544 174.5t202 485.5q0 360 -268 534z" />
<glyph unicode="&#xd9;" horiz-adv-x="1927" d="M227 676v758h107v-752q0 -289 167 -457t464 -168q295 0 461.5 168t166.5 457v752h107v-758q0 -319 -192.5 -519t-542.5 -200q-352 0 -545 199.5t-193 519.5zM590 1894h172l366 -297h-114z" />
<glyph unicode="&#xda;" horiz-adv-x="1927" d="M227 676v758h107v-752q0 -289 167 -457t464 -168q295 0 461.5 168t166.5 457v752h107v-758q0 -319 -192.5 -519t-542.5 -200q-352 0 -545 199.5t-193 519.5zM801 1597l368 297h172l-426 -297h-114z" />
<glyph unicode="&#xdb;" horiz-adv-x="1927" d="M227 676v758h107v-752q0 -289 167 -457t464 -168q295 0 461.5 168t166.5 457v752h107v-758q0 -319 -192.5 -519t-542.5 -200q-352 0 -545 199.5t-193 519.5zM580 1597h125l260 234l260 -234h125l-326 297h-119z" />
<glyph unicode="&#xdc;" horiz-adv-x="1927" d="M227 676v758h107v-752q0 -289 167 -457t464 -168q295 0 461.5 168t166.5 457v752h107v-758q0 -319 -192.5 -519t-542.5 -200q-352 0 -545 199.5t-193 519.5zM627 1706q0 31 21.5 52.5t56 21.5t56 -21.5t21.5 -52.5t-21.5 -52.5t-56 -21.5t-56 21.5t-21.5 52.5zM1147 1706 q0 31 21.5 52.5t56.5 21.5t56.5 -21.5t21.5 -52.5t-21.5 -52.5t-56.5 -21.5t-56.5 21.5t-21.5 52.5z" />
<glyph unicode="&#xdd;" horiz-adv-x="1671" d="M49 1434h131l658 -828l655 828h129l-733 -926v-508h-107v508zM676 1597l368 297h173l-426 -297h-115z" />
<glyph unicode="&#xde;" horiz-adv-x="1826" d="M256 0v1434h106v-260h832q244 0 388 -119t144 -322q0 -207 -144 -324.5t-388 -117.5h-832v-291h-106zM362 385h826q201 0 315.5 91t114.5 257q0 164 -114.5 255t-315.5 91h-826v-694z" />
<glyph unicode="&#xdf;" horiz-adv-x="1574" d="M221 0v977q0 258 157 418.5t445 160.5q231 0 386 -104t155 -287q0 -137 -89 -232t-245 -122q178 -14 297 -118.5t119 -286.5q0 -193 -141.5 -309.5t-380.5 -116.5q-188 0 -359 59l33 82q160 -49 305 -49q207 0 321.5 91t114.5 253q0 164 -115.5 253t-326.5 89h-166v90h90 q207 0 323 81t116 226q0 154 -123 231.5t-314 77.5q-242 0 -369.5 -129t-127.5 -348v-987h-105z" />
<glyph unicode="&#xe0;" horiz-adv-x="1525" d="M106 352q0 137 96.5 230.5t221.5 128t262 34.5q182 0 325.5 -67.5t205.5 -179.5v116q0 446 -492 447q-260 0 -469 -139l-49 77q96 68 239 111t293 43q274 0 429 -138t155 -401v-395q0 -129 53 -219h-112q-47 84 -47 201v6q-63 -111 -206 -179.5t-325 -68.5 q-137 0 -262 35t-221.5 128t-96.5 230zM211 352q0 -84 47 -147.5t124 -95t154.5 -46t157.5 -14.5q172 0 317 67.5t208 198.5v76q-63 133 -207 199.5t-318 66.5q-80 0 -157.5 -14t-154.5 -47t-124 -95.5t-47 -148.5zM385 1571h172l367 -297h-115z" />
<glyph unicode="&#xe1;" horiz-adv-x="1525" d="M106 352q0 137 96.5 230.5t221.5 128t262 34.5q182 0 325.5 -67.5t205.5 -179.5v116q0 446 -492 447q-260 0 -469 -139l-49 77q96 68 239 111t293 43q274 0 429 -138t155 -401v-395q0 -129 53 -219h-112q-47 84 -47 201v6q-63 -111 -206 -179.5t-325 -68.5 q-137 0 -262 35t-221.5 128t-96.5 230zM211 352q0 -84 47 -147.5t124 -95t154.5 -46t157.5 -14.5q172 0 317 67.5t208 198.5v76q-63 133 -207 199.5t-318 66.5q-80 0 -157.5 -14t-154.5 -47t-124 -95.5t-47 -148.5zM596 1274l369 297h172l-426 -297h-115z" />
<glyph unicode="&#xe2;" horiz-adv-x="1525" d="M106 352q0 137 96.5 230.5t221.5 128t262 34.5q182 0 325.5 -67.5t205.5 -179.5v116q0 446 -492 447q-260 0 -469 -139l-49 77q96 68 239 111t293 43q274 0 429 -138t155 -401v-395q0 -129 53 -219h-112q-47 84 -47 201v6q-63 -111 -206 -179.5t-325 -68.5 q-137 0 -262 35t-221.5 128t-96.5 230zM211 352q0 -84 47 -147.5t124 -95t154.5 -46t157.5 -14.5q172 0 317 67.5t208 198.5v76q-63 133 -207 199.5t-318 66.5q-80 0 -157.5 -14t-154.5 -47t-124 -95.5t-47 -148.5zM375 1274h125l260 233l260 -233h125l-326 297h-119z" />
<glyph unicode="&#xe3;" horiz-adv-x="1525" d="M106 352q0 137 96.5 230.5t221.5 128t262 34.5q182 0 325.5 -67.5t205.5 -179.5v116q0 446 -492 447q-260 0 -469 -139l-49 77q96 68 239 111t293 43q274 0 429 -138t155 -401v-395q0 -129 53 -219h-112q-47 84 -47 201v6q-63 -111 -206 -179.5t-325 -68.5 q-137 0 -262 35t-221.5 128t-96.5 230zM211 352q0 -84 47 -147.5t124 -95t154.5 -46t157.5 -14.5q172 0 317 67.5t208 198.5v76q-63 133 -207 199.5t-318 66.5q-80 0 -157.5 -14t-154.5 -47t-124 -95.5t-47 -148.5zM287 1384q88 168 270 168q90 0 212 -66.5t198 -66.5 q124 0 198 123l66 -41q-35 -70 -102.5 -119t-165.5 -49q-90 0 -213 66.5t-199 66.5q-127 0 -197 -123z" />
<glyph unicode="&#xe4;" horiz-adv-x="1525" d="M106 352q0 137 96.5 230.5t221.5 128t262 34.5q182 0 325.5 -67.5t205.5 -179.5v116q0 446 -492 447q-260 0 -469 -139l-49 77q96 68 239 111t293 43q274 0 429 -138t155 -401v-395q0 -129 53 -219h-112q-47 84 -47 201v6q-63 -111 -206 -179.5t-325 -68.5 q-137 0 -262 35t-221.5 128t-96.5 230zM211 352q0 -84 47 -147.5t124 -95t154.5 -46t157.5 -14.5q172 0 317 67.5t208 198.5v76q-63 133 -207 199.5t-318 66.5q-80 0 -157.5 -14t-154.5 -47t-124 -95.5t-47 -148.5zM422 1382.5q0 30.5 21.5 52t56.5 21.5t56.5 -21.5 t21.5 -52t-21.5 -52t-56.5 -21.5t-56.5 21.5t-21.5 52zM942 1382.5q0 30.5 21.5 52t56.5 21.5t56.5 -21.5t21.5 -52t-21.5 -52t-56.5 -21.5t-56.5 21.5t-21.5 52z" />
<glyph unicode="&#xe5;" horiz-adv-x="1525" d="M106 352q0 137 96.5 230.5t221.5 128t262 34.5q182 0 325.5 -67.5t205.5 -179.5v116q0 446 -492 447q-260 0 -469 -139l-49 77q96 68 239 111t293 43q274 0 429 -138t155 -401v-395q0 -129 53 -219h-112q-47 84 -47 201v6q-63 -111 -206 -179.5t-325 -68.5 q-137 0 -262 35t-221.5 128t-96.5 230zM211 352q0 -84 47 -147.5t124 -95t154.5 -46t157.5 -14.5q172 0 317 67.5t208 198.5v76q-63 133 -207 199.5t-318 66.5q-80 0 -157.5 -14t-154.5 -47t-124 -95.5t-47 -148.5zM514 1475q0 100 70.5 155.5t175 55.5t175.5 -55.5 t71 -155.5q0 -102 -71 -156.5t-175.5 -54.5t-175 54t-70.5 157zM598 1474.5q0 -71.5 46 -108.5t118 -37t118 37t46 108.5t-46 107.5t-118 36t-118 -36t-46 -107.5z" />
<glyph unicode="&#xe6;" horiz-adv-x="2613" d="M106 352.5q0 104.5 54.5 184t143.5 122.5t186.5 64.5t197.5 21.5q184 0 325.5 -68.5t203.5 -184.5v122q0 449 -492 449q-264 0 -471 -141l-45 82q221 150 530 149q406 0 533 -283q161 283 579 283q297 0 467 -153.5t176 -426.5q0 -6 -1 -12t-1 -8h-96h-1073v-170 q92 -334 539 -334q174 0 298 44t228 143l68 -74q-217 -205 -598 -205q-215 0 -367 79t-227 222q-66 -150 -226.5 -224.5t-349.5 -74.5q-100 0 -197.5 21.5t-186.5 64.5t-143.5 123t-54.5 184.5zM211 352q0 -84 47 -147.5t124 -96t155.5 -47t158.5 -14.5q172 0 316 68.5 t207 199.5v76q-63 133 -206 199.5t-317 66.5q-80 0 -157.5 -14t-155.5 -47t-125 -95.5t-47 -148.5zM1317 707q4 -41 4 -64h1065q-56 420 -533 420q-219 0 -357 -90t-179 -266z" />
<glyph unicode="&#xe7;" horiz-adv-x="1470" d="M133 555q0 276 176 437t488 161q391 0 567 -258l-98 -51q-66 106 -189 160.5t-278 54.5q-258 0 -408.5 -131t-150.5 -373t150.5 -372t408.5 -130q158 0 282.5 55.5t188.5 165.5l100 -47q-172 -270 -573 -270q-311 0 -487.5 162t-176.5 436zM506 -395l211 319l104 -26 l-229 -322z" />
<glyph unicode="&#xe8;" horiz-adv-x="1550" d="M133 555q0 276 174.5 437t483.5 161q297 0 466.5 -153.5t174.5 -426.5q0 -16 -2 -20h-95h-1095q0 -244 149.5 -374t409.5 -130q176 0 300 44t226 143l70 -74q-219 -205 -600 -205q-311 0 -486.5 162t-175.5 436zM244 641h1081q-29 207 -169 314.5t-365 107.5 q-231 0 -376 -109.5t-171 -312.5zM416 1571h172l366 -297h-114z" />
<glyph unicode="&#xe9;" horiz-adv-x="1550" d="M133 555q0 276 174.5 437t483.5 161q297 0 466.5 -153.5t174.5 -426.5q0 -16 -2 -20h-95h-1095q0 -244 149.5 -374t409.5 -130q176 0 300 44t226 143l70 -74q-219 -205 -600 -205q-311 0 -486.5 162t-175.5 436zM244 641h1081q-29 207 -169 314.5t-365 107.5 q-231 0 -376 -109.5t-171 -312.5zM627 1274l368 297h172l-426 -297h-114z" />
<glyph unicode="&#xea;" horiz-adv-x="1550" d="M133 555q0 276 174.5 437t483.5 161q297 0 466.5 -153.5t174.5 -426.5q0 -16 -2 -20h-95h-1095q0 -244 149.5 -374t409.5 -130q176 0 300 44t226 143l70 -74q-219 -205 -600 -205q-311 0 -486.5 162t-175.5 436zM244 641h1081q-29 207 -169 314.5t-365 107.5 q-231 0 -376 -109.5t-171 -312.5zM406 1274l325 297h119l326 -297h-125l-260 233l-261 -233h-124z" />
<glyph unicode="&#xeb;" horiz-adv-x="1550" d="M133 555q0 276 174.5 437t483.5 161q297 0 466.5 -153.5t174.5 -426.5q0 -16 -2 -20h-95h-1095q0 -244 149.5 -374t409.5 -130q176 0 300 44t226 143l70 -74q-219 -205 -600 -205q-311 0 -486.5 162t-175.5 436zM244 641h1081q-29 207 -169 314.5t-365 107.5 q-231 0 -376 -109.5t-171 -312.5zM453 1382.5q0 30.5 21.5 52t56 21.5t56 -21.5t21.5 -52t-21.5 -52t-56 -21.5t-56 21.5t-21.5 52zM973 1382.5q0 30.5 21.5 52t56 21.5t56 -21.5t21.5 -52t-21.5 -52t-56 -21.5t-56 21.5t-21.5 52z" />
<glyph unicode="&#xec;" horiz-adv-x="559" d="M-98 1571h174l366 -297h-114zM227 0v1112h105v-1112h-105z" />
<glyph unicode="&#xed;" horiz-adv-x="559" d="M117 1274l368 297h172l-426 -297h-114zM227 0v1112h105v-1112h-105z" />
<glyph unicode="&#xee;" horiz-adv-x="559" d="M-106 1274h124l261 233l260 -233h125l-326 297h-119zM227 0v1112h105v-1112h-105z" />
<glyph unicode="&#xef;" horiz-adv-x="559" d="M-61 1382.5q0 30.5 22.5 52t57 21.5t56 -21.5t21.5 -52t-21.5 -52t-56 -21.5t-57 21.5t-22.5 52zM227 0v1112h105v-1112h-105zM461 1382.5q0 30.5 21.5 52t56 21.5t56 -21.5t21.5 -52t-21.5 -52t-56 -21.5t-56 21.5t-21.5 52z" />
<glyph unicode="&#xf0;" horiz-adv-x="1595" d="M131 545q0 268 175 424.5t462 156.5q117 0 222.5 -24.5t207.5 -97t150 -189.5q-94 338 -465 504l-324 -121l-33 74l242 92q-150 49 -317 76l16 92q252 -41 434 -119l297 113l33 -76l-227 -86q459 -246 458 -791q0 -303 -174 -459.5t-491 -156.5q-311 0 -488.5 157.5 t-177.5 430.5zM233 544.5q0 -239.5 152 -365.5t410 -126t409.5 126t151.5 365.5t-151.5 365.5t-409.5 126t-410 -126t-152 -365.5z" />
<glyph unicode="&#xf1;" horiz-adv-x="1605" d="M221 0v1112h105v-256q78 139 221 218t330 79q258 0 389 -145.5t131 -386.5v-621h-105v614q0 215 -107.5 330t-324.5 115q-379 0 -534 -330v-729h-105zM334 1384q88 168 270 168q90 0 212 -66.5t198 -66.5q124 0 198 123l66 -41q-35 -70 -102.5 -119t-165.5 -49 q-90 0 -213 66.5t-199 66.5q-127 0 -197 -123z" />
<glyph unicode="&#xf2;" horiz-adv-x="1595" d="M133 555q0 276 176 437t489.5 161t489.5 -161t176 -437t-176 -437t-489.5 -161t-489.5 161t-176 437zM240 555q0 -242 151.5 -372t407.5 -130t407.5 130t151.5 372t-151.5 373t-407.5 131t-407.5 -131t-151.5 -373zM424 1571h172l367 -297h-115z" />
<glyph unicode="&#xf3;" horiz-adv-x="1595" d="M133 555q0 276 176 437t489.5 161t489.5 -161t176 -437t-176 -437t-489.5 -161t-489.5 161t-176 437zM240 555q0 -242 151.5 -372t407.5 -130t407.5 130t151.5 372t-151.5 373t-407.5 131t-407.5 -131t-151.5 -373zM635 1274l369 297h172l-426 -297h-115z" />
<glyph unicode="&#xf4;" horiz-adv-x="1595" d="M133 555q0 276 176 437t489.5 161t489.5 -161t176 -437t-176 -437t-489.5 -161t-489.5 161t-176 437zM240 555q0 -242 151.5 -372t407.5 -130t407.5 130t151.5 372t-151.5 373t-407.5 131t-407.5 -131t-151.5 -373zM414 1274h125l260 233l260 -233h125l-326 297h-119z " />
<glyph unicode="&#xf5;" horiz-adv-x="1595" d="M133 555q0 276 176 437t489.5 161t489.5 -161t176 -437t-176 -437t-489.5 -161t-489.5 161t-176 437zM240 555q0 -242 151.5 -372t407.5 -130t407.5 130t151.5 372t-151.5 373t-407.5 131t-407.5 -131t-151.5 -373zM326 1384q88 168 270 168q90 0 212 -66.5t198 -66.5 q124 0 198 123l66 -41q-35 -70 -102.5 -119t-166.5 -49q-90 0 -212.5 66.5t-198.5 66.5q-127 0 -197 -123z" />
<glyph unicode="&#xf6;" horiz-adv-x="1595" d="M133 555q0 276 176 437t489.5 161t489.5 -161t176 -437t-176 -437t-489.5 -161t-489.5 161t-176 437zM240 555q0 -242 151.5 -372t407.5 -130t407.5 130t151.5 372t-151.5 373t-407.5 131t-407.5 -131t-151.5 -373zM461 1382.5q0 30.5 21.5 52t56 21.5t56 -21.5t21.5 -52 t-21.5 -52t-56 -21.5t-56 21.5t-21.5 52zM981 1382.5q0 30.5 21.5 52t56.5 21.5t56.5 -21.5t21.5 -52t-21.5 -52t-56.5 -21.5t-56.5 21.5t-21.5 52z" />
<glyph unicode="&#xf7;" d="M197 559v103h1128v-103h-1128zM678 239.5q0 30.5 23.5 54t58.5 23.5q37 0 59.5 -22.5t22.5 -54.5q0 -31 -22.5 -54.5t-59.5 -23.5q-35 0 -58.5 23.5t-23.5 54zM678 983q0 31 23.5 54.5t58.5 23.5q37 0 59.5 -23.5t22.5 -54.5q0 -33 -22.5 -55.5t-59.5 -22.5 q-35 0 -58.5 22.5t-23.5 55.5z" />
<glyph unicode="&#xf8;" horiz-adv-x="1595" d="M133 555q0 276 176 437t490 161q174 0 311 -53l131 198h102l-155 -235q276 -156 276 -508q0 -276 -176 -437t-489 -161q-174 0 -312 53l-129 -196h-102l154 233q-133 74 -205 204t-72 304zM240 555q0 -295 225 -426l590 887q-113 43 -256 43q-256 0 -407.5 -131 t-151.5 -373zM543 94q109 -41 256 -41q256 0 407.5 130t151.5 372q0 295 -225 426z" />
<glyph unicode="&#xf9;" horiz-adv-x="1605" d="M209 492v620h104v-614q0 -213 108.5 -328t323.5 -115q379 0 537 328v729h104v-1110h-104v256q-78 -141 -222.5 -220t-330.5 -79q-258 0 -389 145.5t-131 387.5zM408 1571h172l366 -297h-115z" />
<glyph unicode="&#xfa;" horiz-adv-x="1605" d="M209 492v620h104v-614q0 -213 108.5 -328t323.5 -115q379 0 537 328v729h104v-1110h-104v256q-78 -141 -222.5 -220t-330.5 -79q-258 0 -389 145.5t-131 387.5zM618 1274l369 297h172l-426 -297h-115z" />
<glyph unicode="&#xfb;" horiz-adv-x="1605" d="M209 492v620h104v-614q0 -213 108.5 -328t323.5 -115q379 0 537 328v729h104v-1110h-104v256q-78 -141 -222.5 -220t-330.5 -79q-258 0 -389 145.5t-131 387.5zM397 1274h125l260 233l260 -233h125l-325 297h-119z" />
<glyph unicode="&#xfc;" horiz-adv-x="1605" d="M209 492v620h104v-614q0 -213 108.5 -328t323.5 -115q379 0 537 328v729h104v-1110h-104v256q-78 -141 -222.5 -220t-330.5 -79q-258 0 -389 145.5t-131 387.5zM444 1382.5q0 30.5 21.5 52t56.5 21.5t56.5 -21.5t21.5 -52t-21.5 -52t-56.5 -21.5t-56.5 21.5t-21.5 52z M965 1382.5q0 30.5 21.5 52t56 21.5t56 -21.5t21.5 -52t-21.5 -52t-56 -21.5t-56 21.5t-21.5 52z" />
<glyph unicode="&#xfd;" horiz-adv-x="1433" d="M57 1112h119l545 -922l541 922h114l-893 -1522h-116l297 492zM555 1274l369 297h172l-426 -297h-115z" />
<glyph unicode="&#xfe;" horiz-adv-x="1630" d="M221 -410v1926h105v-648q80 133 226.5 209t334.5 76q285 0 448.5 -164t163.5 -434q0 -268 -164 -432t-448 -164q-188 0 -334.5 76t-226.5 209v-654h-105zM326 358q167 -305 538 -305q250 0 389.5 133t139.5 369t-139.5 370t-389.5 134q-371 0 -538 -305v-396z" />
<glyph unicode="&#xff;" horiz-adv-x="1433" d="M57 1112h119l545 -922l541 922h114l-893 -1522h-116l297 492zM379 1382.5q0 30.5 21.5 52t56.5 21.5t56.5 -21.5t21.5 -52t-21.5 -52t-56.5 -21.5t-56.5 21.5t-21.5 52zM899 1382.5q0 30.5 21.5 52t56.5 21.5t56.5 -21.5t21.5 -52t-21.5 -52t-56.5 -21.5t-56.5 21.5 t-21.5 52z" />
<glyph unicode="&#x152;" horiz-adv-x="2990" d="M145 716.5q0 327.5 230.5 522.5t619.5 195h623h1221v-99h-1221v-555h1048v-100h-1048v-580h1241v-100h-1348h-516q-389 0 -619.5 194.5t-230.5 522zM254 717q0 -295 206 -456t541 -161h510v1235h-510q-336 0 -541.5 -160.5t-205.5 -457.5z" />
<glyph unicode="&#x153;" horiz-adv-x="2766" d="M133 555q0 276 175 437t487 161q225 0 380.5 -86t225.5 -244q72 158 227.5 244t378.5 86q297 0 467 -153.5t174 -426.5q0 -16 -2 -20h-94h-1096q0 -244 149.5 -374t409.5 -130q176 0 300 44t229 143l67 -74q-219 -205 -600 -205q-225 0 -381.5 87t-228.5 243 q-70 -158 -225.5 -244t-380.5 -86q-311 0 -486.5 161t-175.5 437zM240 555q0 -242 150.5 -372t404.5 -130t404.5 130t150.5 372t-150.5 373t-404.5 131t-404.5 -131t-150.5 -373zM1460 641h1082q-29 207 -169.5 314.5t-365.5 107.5q-231 0 -375.5 -109.5t-171.5 -312.5z" />
<glyph unicode="&#x178;" horiz-adv-x="1671" d="M49 1434h131l658 -828l655 828h129l-733 -926v-508h-107v508zM500 1706q0 31 21.5 52.5t56 21.5t56 -21.5t21.5 -52.5t-21.5 -52.5t-56 -21.5t-56 21.5t-21.5 52.5zM1020 1706q0 31 21.5 52.5t56.5 21.5t56.5 -21.5t21.5 -52.5t-21.5 -52.5t-56.5 -21.5t-56.5 21.5 t-21.5 52.5z" />
<glyph unicode="&#x2dc;" horiz-adv-x="1165" d="M111 1708q88 168 270 168q90 0 212 -66.5t198 -66.5q124 0 198 123l66 -41q-35 -70 -102.5 -119t-166.5 -49q-90 0 -212.5 66.5t-198.5 66.5q-127 0 -197 -123z" />
<glyph unicode="&#x2000;" horiz-adv-x="1004" />
<glyph unicode="&#x2001;" horiz-adv-x="2009" />
<glyph unicode="&#x2002;" horiz-adv-x="1004" />
<glyph unicode="&#x2003;" horiz-adv-x="2009" />
<glyph unicode="&#x2004;" horiz-adv-x="669" />
<glyph unicode="&#x2005;" horiz-adv-x="502" />
<glyph unicode="&#x2006;" horiz-adv-x="334" />
<glyph unicode="&#x2007;" horiz-adv-x="334" />
<glyph unicode="&#x2008;" horiz-adv-x="251" />
<glyph unicode="&#x2009;" horiz-adv-x="401" />
<glyph unicode="&#x200a;" horiz-adv-x="111" />
<glyph unicode="&#x2010;" horiz-adv-x="1222" d="M188 563v94h846v-94h-846z" />
<glyph unicode="&#x2011;" horiz-adv-x="1222" d="M188 563v94h846v-94h-846z" />
<glyph unicode="&#x2012;" horiz-adv-x="1222" d="M188 563v94h846v-94h-846z" />
<glyph unicode="&#x2013;" horiz-adv-x="1628" d="M188 563v94h1252v-94h-1252z" />
<glyph unicode="&#x2014;" horiz-adv-x="2076" d="M188 563v94h1700v-94h-1700z" />
<glyph unicode="&#x2018;" horiz-adv-x="501" d="M172 1221q0 172 119 319l41 -29q-84 -123 -94 -225q6 6 26 6q35 0 57.5 -22.5t22.5 -59.5q0 -35 -23.5 -57.5t-60.5 -22.5q-41 0 -64.5 25t-23.5 66z" />
<glyph unicode="&#x2019;" horiz-adv-x="501" d="M170 1382.5q0 34.5 23.5 58t62.5 23.5t63.5 -25.5t24.5 -64.5q0 -172 -121 -321l-41 30q84 119 94 226q-6 -8 -26 -9q-35 0 -57.5 24t-22.5 58.5z" />
<glyph unicode="&#x201c;" horiz-adv-x="745" d="M170 1208q0 174 119 322l41 -29q-84 -123 -94 -225q6 6 26 6q35 0 57.5 -23.5t22.5 -58.5t-23.5 -58.5t-60.5 -23.5q-39 0 -63.5 24.5t-24.5 65.5zM414 1208q0 174 118 322l41 -31q-84 -123 -94 -225q6 8 27 8q35 0 57.5 -23.5t22.5 -58.5t-23.5 -58.5t-60.5 -23.5 q-39 0 -63.5 24.5t-24.5 65.5z" />
<glyph unicode="&#x201d;" horiz-adv-x="745" d="M170 1382q0 35 23.5 57.5t62.5 22.5t63.5 -24.5t24.5 -65.5q0 -170 -121 -319l-41 28q84 119 94 226q-6 -6 -26 -7q-35 0 -57.5 23t-22.5 59zM414 1382.5q0 34.5 23.5 58t60.5 23.5q39 0 63.5 -24.5t24.5 -65.5q0 -174 -119 -321l-41 28q84 123 94 226q-6 -6 -26 -7 q-35 0 -57.5 24t-22.5 58.5z" />
<glyph unicode="&#x201e;" horiz-adv-x="745" d="M170 65.5q0 34.5 23.5 58t62.5 23.5t63.5 -25.5t24.5 -64.5q0 -172 -121 -321l-41 28q84 119 94 226q-6 -6 -26 -6q-35 0 -57.5 23.5t-22.5 58zM414 65.5q0 34.5 23.5 58t60.5 23.5q39 0 63.5 -24.5t24.5 -65.5q0 -174 -119 -321l-41 28q84 123 94 226q-6 -6 -26 -6 q-35 0 -57.5 23.5t-22.5 58z" />
<glyph unicode="&#x2022;" horiz-adv-x="718" d="M215 569q0 59 41 99.5t104 40.5q61 0 102.5 -40t41.5 -100q0 -57 -41 -97t-102.5 -40t-103.5 40t-42 97z" />
<glyph unicode="&#x2026;" horiz-adv-x="1417" d="M160 65.5q0 34.5 23.5 58t62.5 23.5t62.5 -23.5t23.5 -58t-23.5 -58t-62.5 -23.5t-62.5 23.5t-23.5 58zM623 65.5q0 34.5 23.5 58t62.5 23.5t62.5 -23.5t23.5 -58t-23.5 -58t-62.5 -23.5t-62.5 23.5t-23.5 58zM1087 65.5q0 34.5 24 58t62.5 23.5t62.5 -23.5t24 -58 t-24 -58t-62.5 -23.5t-62.5 23.5t-24 58z" />
<glyph unicode="&#x202f;" horiz-adv-x="401" />
<glyph unicode="&#x2039;" horiz-adv-x="821" d="M111 610l442 -434h121l-443 434l443 434h-121z" />
<glyph unicode="&#x203a;" horiz-adv-x="821" d="M147 176h123l441 434l-441 434h-123l443 -434z" />
<glyph unicode="&#x205f;" horiz-adv-x="502" />
<glyph unicode="&#x20ac;" horiz-adv-x="1873" d="M109 539v75h213q-4 66 -4.5 103t4.5 102h-213v78h223q49 272 244.5 426t510.5 154q428 0 650 -330l-90 -53q-186 283 -562 282q-262 0 -429 -124t-212 -355h963v-78h-975q-4 -33 -4 -102.5t4 -102.5h975v-75h-963q45 -233 211 -357.5t430 -124.5q373 0 562 285l90 -55 q-223 -330 -650 -330q-315 0 -510.5 154.5t-244.5 427.5h-223z" />
<glyph unicode="&#x2122;" horiz-adv-x="1996" d="M90 1364v70h729v-70h-327v-631h-74v631h-328zM932 733v701h76l352 -449l356 449h72v-701h-74v592l-352 -444h-6l-352 444v-592h-72z" />
<glyph unicode="&#x25fc;" horiz-adv-x="1116" d="M0 0v1116h1116v-1116h-1116z" />
</font>
</defs>
</svg>
