<?xml version="1.0" standalone="no"?>
<!DOCTYPE svg PUBLIC "-//W3C//DTD SVG 1.1//EN" "http://www.w3.org/Graphics/SVG/1.1/DTD/svg11.dtd" >
<svg xmlns="http://www.w3.org/2000/svg" xmlns:xlink="http://www.w3.org/1999/xlink" version="1.1">
<metadata></metadata>
<defs>
<font id="webfont2" horiz-adv-x="1515" >
<font-face units-per-em="2048" ascent="1536" descent="-512" />
<missing-glyph horiz-adv-x="500" />
<glyph unicode="&#xfb01;" horiz-adv-x="1566" d="M41 973v143h225v92q0 172 105.5 260t265.5 88q190 0 324 -102l-80 -106q-107 79 -228 79q-219 0 -219 -192v-119h512v-143h-512v-973h-168v973h-225zM1155 1397q0 47 34 77.5t85 30.5t85 -30.5t34 -77.5q0 -45 -34 -77t-85 -32t-85 32t-34 77zM1190 0v1116h168v-1116 h-168z" />
<glyph unicode="&#xfb02;" horiz-adv-x="1566" d="M41 973v143h225v92q0 172 105.5 260t265.5 88q190 0 324 -102l-80 -106q-107 79 -228 79q-219 0 -219 -192v-119h512v-143h-512v-973h-168v973h-225zM1190 0v1516h168v-1516h-168z" />
<glyph horiz-adv-x="0" />
<glyph unicode="&#xd;" horiz-adv-x="681" />
<glyph unicode="!" horiz-adv-x="643" d="M184 92q0 49 35 82t88 33t88 -33t35 -82t-35 -80.5t-88 -31.5t-88 31.5t-35 80.5zM201 1434h213l-35 -1039h-143z" />
<glyph unicode="&#x22;" horiz-adv-x="901" d="M178 936v580h148v-580h-148zM573 936v580h148v-580h-148z" />
<glyph unicode="#" horiz-adv-x="1941" d="M111 408v129h354l110 387h-393v129h430l109 381h151l-108 -381h600l109 381h151l-108 -381h315v-129h-352l-111 -387h391v-129h-428l-117 -408h-151l117 408h-600l-117 -408h-152l117 408h-317zM616 537h601l110 387h-600z" />
<glyph unicode="$" horiz-adv-x="1796" d="M113 293l123 123q268 -231 614 -258v504q-100 10 -177 21t-160 29.5t-142.5 46t-109.5 65.5t-74.5 90.5t-24.5 117.5q0 186 198.5 292t489.5 112v190h149v-196q371 -33 619 -246l-127 -113q-186 174 -492 203v-463q133 -12 229.5 -27.5t187.5 -43t146.5 -66.5t89.5 -98.5 t34 -139.5q0 -193 -183.5 -311.5t-503.5 -126.5v-211h-149v215q-442 29 -737 291zM338 1038q0 -59 36 -98t113.5 -61.5t156.5 -33.5t206 -22v457q-131 -2 -240.5 -23.5t-190.5 -78t-81 -140.5zM999 154q242 6 376 74.5t134 195.5q0 113 -116.5 156t-393.5 67v-493z" />
<glyph unicode="%" horiz-adv-x="1871" d="M90 1134.5q0 137.5 100.5 230.5t258 93t258 -93t100.5 -230.5t-100.5 -230.5t-258 -93t-258 93t-100.5 230.5zM221 1134.5q0 -94.5 63.5 -149.5t164 -55t164 55t63.5 149.5t-63.5 149.5t-164 55t-164 -55t-63.5 -149.5zM301 0l1110 1434h160l-1110 -1434h-160zM1065 299 q0 137 100.5 230.5t258 93.5t258 -93.5t100.5 -230.5t-100.5 -230.5t-258 -93.5t-258 93.5t-100.5 230.5zM1196 299q0 -94 63.5 -149.5t164 -55.5t164 55.5t63.5 149.5t-63.5 149.5t-164 55.5t-164 -55.5t-63.5 -149.5z" />
<glyph unicode="&#x26;" horiz-adv-x="1830" d="M131 436q0 125 80 231.5t217 163.5q-123 117 -123 256q0 174 146.5 281t379.5 107q236 0 385.5 -106.5t221.5 -272.5l-152 -62q-123 285 -457 285q-164 0 -256 -60.5t-92 -162.5q0 -55 37 -108.5t81 -89.5t138 -105q31 -23 45 -33l598 -438q102 133 105 350h168 q-4 -268 -142 -447l308 -225h-269l-153 113q-205 -154 -549 -154q-307 0 -512 137t-205 340zM309 446q0 -162 159 -246.5t392 -84.5q246 0 402 96l-654 481q-51 37 -63 47q-236 -92 -236 -293z" />
<glyph unicode="'" horiz-adv-x="505" d="M178 936v580h148v-580h-148z" />
<glyph unicode="(" horiz-adv-x="880" d="M125 593.5q0 319.5 167 557.5t445 319l56 -120q-240 -82 -378.5 -279t-138.5 -477.5t138.5 -477t378.5 -278.5l-56 -121q-279 82 -445.5 319.5t-166.5 557z" />
<glyph unicode=")" horiz-adv-x="880" d="M88 -162q240 82 378 278.5t138 477t-138 477.5t-378 279l55 120q279 -82 446 -319.5t167 -557t-167 -557t-446 -319.5z" />
<glyph unicode="*" horiz-adv-x="1171" d="M135 967v145l377 -29l-213 310l123 71l164 -344l164 344l122 -71l-213 -310l377 29v-145l-377 28l213 -311l-122 -72l-164 344l-164 -344l-123 72l213 311z" />
<glyph unicode="+" d="M182 543v139h504v451h148v-451h501v-139h-501v-451h-148v451h-504z" />
<glyph unicode="," horiz-adv-x="538" d="M152 94q0 47 34.5 80t85.5 33q55 0 91 -36t36 -95q0 -86 -45 -188.5t-123 -174.5l-55 47q109 125 123 228q-8 -8 -33 -8q-49 0 -81.5 32.5t-32.5 81.5z" />
<glyph unicode="-" horiz-adv-x="1224" d="M174 539v147h875v-147h-875z" />
<glyph unicode="." horiz-adv-x="524" d="M139 92q0 49 35 82t88 33t88 -33t35 -82t-35 -80.5t-88 -31.5t-88 31.5t-35 80.5z" />
<glyph unicode="/" horiz-adv-x="1406" d="M66 -205l1085 1802h192l-1085 -1802h-192z" />
<glyph unicode="0" horiz-adv-x="1925" d="M131 717q0 352 220 556t611.5 204t611.5 -204t220 -556t-220 -556t-611.5 -204t-611.5 204t-220 556zM307 717q0 -291 174 -445.5t481.5 -154.5t481.5 154.5t174 445.5t-174 445.5t-481.5 154.5t-481.5 -154.5t-174 -445.5z" />
<glyph unicode="1" horiz-adv-x="921" d="M66 1030v156q248 37 487 248h131v-1434h-172v1219q-176 -145 -446 -189z" />
<glyph unicode="2" horiz-adv-x="1665" d="M100 0v84q35 182 226.5 339t511.5 273q109 39 165 61.5t130.5 58.5t111.5 65.5t63.5 70.5t26.5 88q0 135 -145.5 209t-347.5 74q-362 0 -570 -299l-131 86q90 160 279.5 262.5t427.5 102.5q266 0 464.5 -117t198.5 -316q0 -90 -39.5 -160.5t-124.5 -128t-179.5 -99.5 t-237.5 -91q-547 -193 -611 -411h1225v-152h-1444z" />
<glyph unicode="3" horiz-adv-x="1708" d="M90 311l152 82q82 -133 253 -207.5t388 -74.5q219 0 366.5 76.5t147.5 220.5q0 264 -574 264h-186v151h186q223 0 374 64.5t151 185.5q0 80 -73 138.5t-178.5 85t-224.5 26.5q-414 0 -591 -256l-150 80q227 328 717 328q285 0 480.5 -106.5t195.5 -287.5 q0 -135 -108.5 -224t-248.5 -103q72 -8 139.5 -31t131 -64t102.5 -107.5t39 -152.5q0 -203 -199.5 -321.5t-502.5 -118.5q-270 0 -469 93t-318 259z" />
<glyph unicode="4" horiz-adv-x="1757" d="M59 354v117l1158 963h151v-932h313v-148h-313v-354h-172v354h-1137zM319 502h877v721z" />
<glyph unicode="5" horiz-adv-x="1703" d="M104 311l134 92q102 -139 273 -214.5t382 -75.5q242 0 389.5 83t147.5 240q0 160 -155 242t-423 82t-541 -119l-143 64l123 729h1165v-154h-1022l-84 -494q135 68 263 92.5t294 24.5q303 0 501 -119.5t198 -351.5q0 -205 -194.5 -340t-518.5 -135q-248 0 -452.5 96.5 t-336.5 257.5z" />
<glyph unicode="6" horiz-adv-x="1804" d="M131 717q0 348 220 554t607 206q442 0 674 -256l-135 -101q-188 209 -530 209q-305 0 -482.5 -153.5t-177.5 -458.5q0 -53 6 -103q119 137 307.5 216t428.5 79q266 0 453.5 -119.5t187.5 -345.5q0 -217 -199 -352t-533 -135q-387 0 -607 206t-220 554zM344 473 q61 -184 221 -276.5t393 -92.5q254 0 404.5 89.5t150.5 251t-140 240.5t-361 79q-190 0 -373.5 -78t-294.5 -213z" />
<glyph unicode="7" horiz-adv-x="1531" d="M51 1278v156h1438v-127l-844 -1307h-207l834 1278h-1221z" />
<glyph unicode="8" horiz-adv-x="1808" d="M131 393q0 111 70.5 195t162 122t189.5 46q-150 14 -258.5 97t-108.5 224q0 186 203 293t516.5 107t516 -107.5t202.5 -292.5q0 -141 -108.5 -224t-258.5 -97q98 -8 189.5 -46t162 -122t70.5 -195q0 -203 -213 -319.5t-561 -116.5q-350 0 -562 116.5t-212 319.5zM309 391 q0 -135 163 -211t431 -76q274 0 435 72t161 215q0 135 -162.5 211t-433.5 76q-268 0 -431 -76t-163 -211zM360 1073q0 -129 154 -192.5t391.5 -63.5t391 63.5t153.5 192.5t-153.5 192.5t-391 63.5t-391.5 -63.5t-154 -192.5z" />
<glyph unicode="9" horiz-adv-x="1804" d="M115 989q0 217 198.5 352.5t532.5 135.5q387 0 607 -206t220 -554t-220 -554t-607 -206q-444 0 -674 256l135 100q188 -209 531 -209q305 0 482 154t177 459q0 53 -6 102q-119 -137 -307.5 -216t-427.5 -79q-266 0 -453.5 120t-187.5 345zM291 989q0 -162 140.5 -240.5 t361.5 -78.5q190 0 373.5 77.5t293.5 213.5q-61 184 -221 276t-393 92q-254 0 -404.5 -89t-150.5 -251z" />
<glyph unicode=":" horiz-adv-x="524" d="M139 92q0 49 35 82t88 33t88 -33t35 -82t-35 -80.5t-88 -31.5t-88 31.5t-35 80.5zM139 1022q0 49 35 82t88 33t88 -33t35 -82t-35 -81t-88 -32t-88 32t-35 81z" />
<glyph unicode=";" horiz-adv-x="528" d="M139 1022q0 49 35 82t88 33t88 -33t35 -82t-35 -81t-88 -32t-88 32t-35 81zM141 94q0 47 35 80t86 33q55 0 91 -36t36 -95q0 -86 -45 -188.5t-123 -174.5l-55 47q109 125 123 228q-8 -8 -33 -8q-49 0 -82 32.5t-33 81.5z" />
<glyph unicode="&#x3c;" d="M197 535l1065 -451v156l-897 368l897 369v156l-1065 -451v-147z" />
<glyph unicode="=" d="M182 301v156h1153v-156h-1153zM182 782v156h1153v-156h-1153z" />
<glyph unicode="&#x3e;" d="M254 84l1065 451v147l-1065 451v-156l897 -369l-897 -368v-156z" />
<glyph unicode="?" horiz-adv-x="1513" d="M78 1130q109 160 293 252.5t420 92.5q162 0 300 -45.5t230 -140.5t92 -224q0 -176 -163 -278.5t-431 -120.5v-254h-151v379q569 35 569 274q0 86 -66.5 146.5t-166 86t-220.5 25.5q-383 0 -573 -276zM625 92q0 49 34.5 82t88 33t88 -33t34.5 -82t-34.5 -80.5t-88 -31.5 t-88 31.5t-34.5 80.5z" />
<glyph unicode="@" horiz-adv-x="2277" d="M127 557q0 375 281.5 610.5t724 235.5t724 -235.5t281.5 -610.5q0 -256 -82 -379t-219 -123q-109 0 -185.5 65.5t-92.5 166.5q-70 -115 -209.5 -184.5t-300.5 -69.5q-240 0 -398.5 144.5t-158.5 382t158.5 380.5t398.5 143q162 0 299 -69.5t204 -184.5l43 215h101v-653 q0 -256 162 -256q84 0 138 104.5t54 317.5q0 238 -126 414t-332 263t-459.5 87t-459.5 -87t-332 -263t-126 -414t126 -414t332 -262t460 -86q365 0 587 162l45 -70q-229 -174 -632 -174q-442 0 -724 235.5t-282 608.5zM641 557q0 -186 122.5 -290.5t321.5 -104.5 q156 0 278 70.5t185 207.5v234q-63 137 -185 207.5t-278 70.5q-199 0 -321.5 -104.5t-122.5 -290.5z" />
<glyph unicode="A" horiz-adv-x="1835" d="M33 0l788 1434h193l788 -1434h-194l-209 385h-967l-209 -385h-190zM516 541h799l-400 735z" />
<glyph unicode="B" horiz-adv-x="1896" d="M238 0v1434h954q225 0 361.5 -94.5t136.5 -270.5q0 -131 -79 -225.5t-229 -106.5q389 -25 390 -344q0 -193 -142.5 -293t-396.5 -100h-995zM408 156h794q391 0 391 249.5t-391 249.5h-794v-499zM408 811h759q350 0 351 234q0 233 -351 233h-759v-467z" />
<glyph unicode="C" horiz-adv-x="1816" d="M131 717q0 350 232.5 555t635.5 205q252 0 438.5 -94.5t291.5 -258.5l-164 -82q-162 274 -568 275q-319 0 -504.5 -154.5t-185.5 -445.5t185.5 -445.5t504.5 -154.5q410 0 568 274l164 -82q-104 -166 -292 -259t-444 -93q-399 0 -630.5 205t-231.5 555z" />
<glyph unicode="D" horiz-adv-x="1925" d="M238 0v1434h696q393 0 626.5 -193.5t233.5 -523.5t-233.5 -523.5t-626.5 -193.5h-696zM410 160h512q315 0 505.5 144.5t190.5 412.5t-190.5 412.5t-505.5 144.5h-512v-1114z" />
<glyph unicode="E" horiz-adv-x="1740" d="M238 0v1434h1366v-160h-1194v-465h1011v-160h-1011v-489h1214v-160h-1386z" />
<glyph unicode="F" horiz-adv-x="1675" d="M238 0v1434h1364v-160h-1192v-502h1011v-160h-1011v-612h-172z" />
<glyph unicode="G" horiz-adv-x="1941" d="M131 717q0 352 233.5 556t643.5 204q473 0 729 -299l-150 -105q-195 244 -579 244q-328 0 -514.5 -153.5t-186.5 -446.5t188.5 -446.5t524.5 -153.5q473 0 625 282v187h-652v159h824v-397q-92 -174 -303 -282.5t-500 -108.5q-414 0 -648.5 204t-234.5 556z" />
<glyph unicode="H" horiz-adv-x="1998" d="M238 0v1434h172v-625h1179v625h172v-1434h-172v645h-1179v-645h-172z" />
<glyph unicode="I" horiz-adv-x="647" d="M238 0v1434h172v-1434h-172z" />
<glyph unicode="J" horiz-adv-x="1415" d="M35 199l145 96q61 -92 153.5 -135t241.5 -43q236 0 347.5 129t111.5 358v830h172v-840q0 -135 -36.5 -248t-110.5 -201t-198 -138t-286 -50q-377 0 -540 242z" />
<glyph unicode="K" horiz-adv-x="1804" d="M238 0v1434h172v-840l1085 840h246l-715 -564l760 -870h-219l-680 770l-477 -373v-397h-172z" />
<glyph unicode="L" horiz-adv-x="1554" d="M238 0v1434h172v-1274h1097v-160h-1269z" />
<glyph unicode="M" horiz-adv-x="2285" d="M238 0v1434h188l719 -877l719 877h184v-1434h-172v1192l-729 -883h-12l-729 883v-1192h-168z" />
<glyph unicode="N" horiz-adv-x="1998" d="M238 0v1434h186l1169 -1182v1182h168v-1434h-151l-1204 1214v-1214h-168z" />
<glyph unicode="O" horiz-adv-x="2007" d="M131 717q0 352 232.5 556t640 204t640 -204t232.5 -556t-232.5 -556t-640 -204t-640 204t-232.5 556zM307 716.5q0 -284.5 187.5 -442t509 -157.5t509 157.5t187.5 442t-187.5 442.5t-509 158t-509 -158t-187.5 -442.5z" />
<glyph unicode="P" horiz-adv-x="1832" d="M238 0v1434h958q250 0 399.5 -121t149.5 -334t-149.5 -334t-399.5 -121h-786v-524h-172zM410 684h774q180 0 282.5 73.5t102.5 221t-102.5 221.5t-282.5 74h-774v-590z" />
<glyph unicode="Q" horiz-adv-x="2007" d="M131 717q0 352 232.5 556t640 204t640 -204t232.5 -556q0 -412 -313 -617l215 -231l-111 -102l-244 262q-180 -72 -419 -72q-408 0 -640.5 204t-232.5 556zM307 716.5q0 -284.5 187.5 -442t509.5 -157.5q168 0 299 43l-232 250l111 102l264 -285q254 154 254 490 q0 285 -187.5 442.5t-509 157.5t-509 -158t-187.5 -442.5z" />
<glyph unicode="R" horiz-adv-x="1894" d="M238 0v1434h962q246 0 397.5 -118t151.5 -325q0 -184 -121 -297.5t-323 -138.5l489 -555h-225l-475 549h-682v-549h-174zM410 709h778q180 0 282.5 70.5t102.5 212t-102.5 212t-282.5 70.5h-778v-565z" />
<glyph unicode="S" horiz-adv-x="1769" d="M98 252l121 129q299 -264 727 -264q258 0 403.5 76.5t145.5 209.5q0 63 -37 107.5t-120 71t-182 42t-259 30t-281.5 38t-234.5 67.5t-173.5 117.5t-60.5 176.5q0 195 211 309.5t512 114.5q223 0 413 -70t321 -186l-136 -115q-211 207 -589 211q-100 0 -195.5 -14.5 t-177.5 -43t-132 -81t-50 -119.5q0 -63 44 -108.5t137 -71t186.5 -38t240.5 -24.5q176 -14 302 -38.5t229.5 -68.5t155.5 -118t52 -176q0 -203 -196.5 -331t-538.5 -128q-502 0 -838 295z" />
<glyph unicode="T" horiz-adv-x="1615" d="M45 1278v156h1526v-156h-678v-1278h-172v1278h-676z" />
<glyph unicode="U" horiz-adv-x="1931" d="M209 676v758h172v-748q0 -266 153.5 -417.5t432.5 -151.5q276 0 429.5 151.5t153.5 417.5v748h172v-758q0 -324 -197.5 -521.5t-558 -197.5t-559 197.5t-198.5 521.5z" />
<glyph unicode="V" horiz-adv-x="1773" d="M33 1434h194l662 -1248l661 1248h191l-760 -1434h-188z" />
<glyph unicode="W" horiz-adv-x="2463" d="M61 1434h189l432 -1225l465 1225h174l463 -1225l434 1225h184l-526 -1434h-182l-461 1227l-463 -1227h-182z" />
<glyph unicode="X" horiz-adv-x="1648" d="M37 0l674 721l-670 713h225l561 -596l562 596h219l-670 -711l674 -723h-226l-565 602l-565 -602h-219z" />
<glyph unicode="Y" horiz-adv-x="1685" d="M37 1434h207l602 -777l598 777h205l-719 -932v-502h-172v502z" />
<glyph unicode="Z" horiz-adv-x="1736" d="M111 0v127l1220 1151h-1184v156h1446v-127l-1220 -1151h1253v-156h-1515z" />
<glyph unicode="[" horiz-adv-x="878" d="M238 -246v1680h553v-136h-410v-1409h410v-135h-553z" />
<glyph unicode="\" horiz-adv-x="1482" d="M63 1597h193l1085 -1802h-192z" />
<glyph unicode="]" horiz-adv-x="878" d="M88 -111h410v1409h-410v136h553v-1680h-553v135z" />
<glyph unicode="^" d="M215 532h172l371 732l370 -732h172l-469 902h-147z" />
<glyph unicode="_" horiz-adv-x="1298" d="M8 -129h1282v-135h-1282v135z" />
<glyph unicode="`" horiz-adv-x="1191" d="M281 1905h274l338 -308h-160z" />
<glyph unicode="a" horiz-adv-x="1527" d="M92 354q0 104 53.5 185.5t140.5 124.5t182 64.5t194 21.5q172 0 304 -62.5t201 -161.5v92q0 201 -114.5 297.5t-345.5 96.5q-236 0 -439 -129l-78 123q100 68 247.5 109.5t297.5 41.5q285 0 444.5 -138t159.5 -401v-401q0 -127 54 -217h-179q-47 80 -47 178v4 q-72 -98 -202.5 -160.5t-302.5 -62.5q-98 0 -192.5 20.5t-182.5 64.5t-141.5 124t-53.5 186zM258 354.5q0 -73.5 41 -127t107.5 -80t133 -38t136.5 -11.5q156 0 291.5 57.5t203.5 178.5v41q-68 121 -202.5 178t-292.5 57q-70 0 -136.5 -11t-133 -37.5t-107.5 -80t-41 -127z " />
<glyph unicode="b" horiz-adv-x="1634" d="M203 0v1516h168v-615q78 119 218 187.5t320 68.5q279 0 443 -164t164 -436t-164 -435t-443 -163q-180 0 -320 68.5t-218 187.5v-215h-168zM371 381q157 -272 495 -272q229 0 354.5 116.5t125.5 331.5q0 217 -125 334t-355 117q-338 0 -495 -273v-354z" />
<glyph unicode="c" horiz-adv-x="1466" d="M119 557.5q0 276.5 180 439t496 162.5q393 0 581 -268l-164 -82q-57 102 -170.5 151.5t-244.5 49.5q-229 0 -368.5 -116t-139.5 -337q0 -219 139 -335t369 -116q133 0 248.5 51.5t171.5 155.5l165 -73q-176 -283 -587 -283q-315 0 -495.5 162t-180.5 438.5z" />
<glyph unicode="d" horiz-adv-x="1634" d="M119 557q0 272 163.5 436t442.5 164q180 0 320.5 -68.5t218.5 -187.5v615h168v-1516h-168v215q-78 -119 -218.5 -187.5t-320.5 -68.5q-279 0 -442.5 163t-163.5 435zM289 557q0 -215 125 -331.5t354 -116.5q338 0 496 272v354q-158 272 -496 273q-229 0 -354 -117 t-125 -334z" />
<glyph unicode="e" horiz-adv-x="1546" d="M119 557.5q0 278.5 178 440t491 161.5q301 0 476.5 -157.5t175.5 -442.5q0 -20 -4 -37h-1147q12 -207 150.5 -314.5t367.5 -107.5q162 0 273.5 42t209.5 134l111 -116q-223 -203 -602 -203q-322 0 -501 161t-179 439.5zM297 662h973q-35 178 -163 266t-316 88 q-199 0 -331 -91t-163 -263z" />
<glyph unicode="f" horiz-adv-x="980" d="M41 973v143h225v92q0 172 105.5 260t265.5 88q190 0 324 -102l-80 -106q-105 79 -225 79h-3h-2q-217 0 -217 -192v-119h512v-143h-512v-973h-168v973h-225z" />
<glyph unicode="g" horiz-adv-x="1634" d="M119 557q0 272 163.5 436t442.5 164q180 0 320.5 -68.5t218.5 -187.5v215h168v-993q0 -193 -92.5 -326t-238 -190.5t-331.5 -57.5q-147 0 -296.5 42t-240.5 108l80 129q197 -129 441 -129q248 0 379 101.5t131 301.5v113q-78 -117 -224.5 -186.5t-314.5 -69.5 q-279 0 -442.5 163t-163.5 435zM289 557q0 -215 125 -331.5t354 -116.5q338 0 496 272v354q-158 272 -496 273q-229 0 -354 -117t-125 -334z" />
<glyph unicode="h" horiz-adv-x="1613" d="M203 0v1516h168v-631q80 129 218 200.5t314 71.5q252 0 382 -144.5t130 -381.5v-631h-168v618q0 389 -377 390q-348 0 -499 -308v-700h-168z" />
<glyph unicode="i" horiz-adv-x="585" d="M174 1397q0 47 34 77.5t85 30.5t85 -30.5t34 -77.5q0 -45 -34 -77t-85 -32t-85 32t-34 77zM209 0v1116h168v-1116h-168z" />
<glyph unicode="j" horiz-adv-x="585" d="M-137 -410l51 138q47 -25 111 -25q88 0 136 54.5t48 148.5v1210h168v-1241q0 -152 -86 -239t-232 -87q-111 0 -196 41zM174 1395q0 45 34 75.5t85 30.5t85 -30.5t34 -75.5t-34 -76t-85 -31t-85 31t-34 76z" />
<glyph unicode="k" horiz-adv-x="1421" d="M203 0v1516h168v-1029l778 629h221l-532 -440l567 -676h-205l-493 580l-336 -263v-317h-168z" />
<glyph unicode="l" horiz-adv-x="585" d="M209 0v1516h168v-1516h-168z" />
<glyph unicode="m" horiz-adv-x="2525" d="M203 0v1116h168v-231q70 125 200.5 198.5t294.5 73.5q186 0 300 -86t155 -235q66 147 206 234t318 87q244 0 363 -144.5t119 -377.5v-635h-166v623q0 182 -88 283.5t-271 101.5q-315 0 -456 -310q2 -20 2 -63v-498l2 -137h-168v623q0 182 -88 283.5t-271 101.5 q-311 0 -452 -303v-705h-168z" />
<glyph unicode="n" horiz-adv-x="1613" d="M203 0v1116h168v-231q80 129 218 200.5t314 71.5q252 0 382 -144.5t130 -381.5v-631h-168v618q0 389 -377 390q-348 0 -499 -308v-700h-168z" />
<glyph unicode="o" horiz-adv-x="1593" d="M119 557.5q0 278.5 180 440t497.5 161.5t498 -161.5t180.5 -440t-180.5 -439.5t-498 -161t-497.5 161t-180 439.5zM289 557q0 -219 140 -335t367.5 -116t368 116t140.5 335t-140.5 336t-368 117t-367.5 -117t-140 -336z" />
<glyph unicode="p" horiz-adv-x="1634" d="M203 -410v1526h168v-215q78 119 218 187.5t320 68.5q279 0 443 -163t164 -435t-164 -436t-443 -164q-180 0 -320 68.5t-218 187.5v-625h-168zM371 381q158 -272 495 -272q229 0 354.5 116.5t125.5 333.5q0 215 -125.5 332t-354.5 117q-338 0 -495 -273v-354z" />
<glyph unicode="q" horiz-adv-x="1634" d="M119 559q0 272 163.5 435t442.5 163q180 0 320.5 -68.5t218.5 -187.5v215h168v-1526h-168v625q-78 -119 -218.5 -187.5t-320.5 -68.5q-279 0 -442.5 164t-163.5 436zM289 559q0 -217 125 -333.5t354 -116.5q338 0 496 272v354q-158 273 -496 273q-229 0 -354 -117 t-125 -332z" />
<glyph unicode="r" horiz-adv-x="962" d="M203 0v1116h168v-274q66 139 218 218t337 79v-152q-197 0 -345.5 -86t-209.5 -250v-651h-168z" />
<glyph unicode="s" horiz-adv-x="1415" d="M90 197l107 100q238 -201 548 -201q180 0 297 54.5t117 152.5t-107.5 139t-342.5 62q-123 10 -216.5 28.5t-180.5 52t-133 94t-46 142.5q0 160 160 249t416 89q160 0 309 -54t250 -136l-107 -113q-186 162 -461 164h-22q-84 0 -159 -14q-85 -16 -152.5 -60.5 t-67.5 -114.5q0 -51 33 -84.5t101.5 -53t136 -29t173.5 -17.5q582 -47 582 -328q0 -158 -153.5 -260t-430.5 -102q-379 0 -651 240z" />
<glyph unicode="t" horiz-adv-x="989" d="M41 969v147h225v260h168v-260h514v-147h-514v-662q0 -98 64.5 -148t163.5 -50h3q105 0 232 75l59 -121q-150 -104 -323 -104q-160 0 -263.5 84t-103.5 240v686h-225z" />
<glyph unicode="u" horiz-adv-x="1613" d="M199 485v631h168v-618q0 -389 376 -389q348 0 500 307v700h168v-1116h-168v231q-80 -129 -218 -200.5t-314 -71.5q-252 0 -382 144.5t-130 381.5z" />
<glyph unicode="v" horiz-adv-x="1445" d="M45 1116h191l489 -948l489 948h187l-586 -1116h-184z" />
<glyph unicode="w" horiz-adv-x="2023" d="M66 1116h174l340 -926l352 926h164l352 -926l340 926h170l-418 -1116h-172l-354 934l-359 -934h-172z" />
<glyph unicode="x" horiz-adv-x="1343" d="M49 0l516 561l-512 555h211l410 -454l409 454h207l-510 -553l514 -563h-211l-413 459l-414 -459h-207z" />
<glyph unicode="y" horiz-adv-x="1447" d="M45 1116h188l496 -868l490 868h184l-871 -1526h-182l289 488z" />
<glyph unicode="z" horiz-adv-x="1366" d="M90 -2v123l914 848h-885v147h1128v-123l-913 -848h938v-147h-1182z" />
<glyph unicode="{" horiz-adv-x="929" d="M37 545v100q74 0 131 15.5t110.5 52.5t82 113.5t28.5 187.5q0 203 97.5 311.5t275.5 108.5h80v-136h-62q-121 0 -183 -88t-62 -231q0 -180 -86.5 -279.5t-229.5 -103.5q143 -8 229.5 -107.5t86.5 -277.5q0 -145 62 -233.5t183 -88.5h62v-135h-80q-178 0 -275.5 109.5 t-97.5 312.5q0 111 -28.5 187.5t-82 113.5t-110.5 52.5t-131 15.5z" />
<glyph unicode="|" horiz-adv-x="602" d="M221 -246v1680h160v-1680h-160z" />
<glyph unicode="}" horiz-adv-x="929" d="M88 -111h62q121 0 183 88.5t62 233.5q0 178 86 277.5t230 107.5q-143 4 -229.5 103.5t-86.5 279.5q0 143 -62.5 231t-182.5 88h-62v136h80q178 0 275.5 -108.5t97.5 -311.5q0 -111 28.5 -187.5t82 -113.5t110.5 -52.5t131 -15.5v-100q-74 0 -131 -15.5t-110.5 -52.5 t-82 -113.5t-28.5 -187.5q0 -203 -97.5 -312.5t-275.5 -109.5h-80v135z" />
<glyph unicode="~" d="M172 575q45 70 127 120t199 50q100 0 267 -58t259 -58q155 -1 225 110l101 -90q-43 -70 -127 -120t-203 -50q-98 0 -265 58.5t-257 58.5q-160 0 -226 -111z" />
<glyph unicode="&#xa1;" horiz-adv-x="643" d="M184 932q0 49 35 80.5t88 31.5t88 -31.5t35 -80.5t-35 -82t-88 -33t-88 33t-35 82zM201 -410l35 1039h143l35 -1039h-213z" />
<glyph unicode="&#xa2;" horiz-adv-x="1486" d="M129 717q0 246 155.5 393t432.5 166v158h139v-158q356 -25 512 -270l-137 -64q-113 174 -375 191v-832q254 14 375 195l139 -62q-70 -117 -202 -190.5t-312 -85.5v-158h-139v158q-276 18 -432 165.5t-156 393.5zM281 716.5q0 -192.5 113.5 -295t322.5 -118.5v827 q-209 -16 -322.5 -118.5t-113.5 -295z" />
<glyph unicode="&#xa3;" d="M115 0v147h241v508h-241v140h241v127q0 231 140.5 393t402.5 162q143 0 268 -57.5t199 -149.5l-100 -103q-150 162 -359 162q-190 0 -286.5 -113.5t-96.5 -308.5v-112h738v-140h-738v-508h856v-147h-1024h-241z" />
<glyph unicode="&#xa4;" horiz-adv-x="1650" d="M160 135l202 203q-152 147 -151 391q0 221 127 367l-178 178l92 86l184 -178q158 104 389 104q236 0 389 -106l185 180l92 -86l-178 -178q127 -146 127 -367q0 -240 -152 -391l203 -203l-92 -86l-213 211q-152 -88 -361 -88q-207 0 -360 86l-213 -209zM358 729 q0 -205 125 -311.5t342 -106.5t342 106.5t125 311.5t-125 311.5t-342 106.5t-342 -106.5t-125 -311.5z" />
<glyph unicode="&#xa5;" horiz-adv-x="1728" d="M76 1434h207l585 -752l582 752h205l-608 -768h391v-101h-471l-15 -18v-144h486v-100h-486v-303h-172v303h-485v100h485v144l-14 18h-471v101h391z" />
<glyph unicode="&#xa6;" horiz-adv-x="602" d="M221 -246v680h160v-680h-160zM221 764v670h160v-670h-160z" />
<glyph unicode="&#xa7;" horiz-adv-x="1488" d="M117 -49l110 98q229 -199 543 -199q182 0 299 54.5t117 153t-107.5 139.5t-343.5 61q-123 10 -216 28.5t-180 52.5t-133 94.5t-46 141.5q0 104 66.5 183.5t183.5 122.5q-236 76 -236 258q0 160 160 249t416 89q160 0 308 -54.5t249 -136.5l-101 -112q-199 162 -456 163 q-80 0 -149 -8t-130 -28.5t-96 -59.5t-35 -92q0 -51 33 -85t101.5 -53.5t136 -28.5t173.5 -17q582 -47 582 -328q0 -211 -227 -307q213 -84 213 -256q0 -158 -155 -260.5t-431 -102.5q-381 0 -649 240zM326 598q0 -51 33.5 -87t99 -57.5t138.5 -32.5t173 -20q84 -6 162 -18 q121 27 194.5 89.5t73.5 137.5q0 98 -110.5 144.5t-339.5 66.5l-74 6q-150 -12 -250 -72.5t-100 -156.5z" />
<glyph unicode="&#xa8;" horiz-adv-x="1179" d="M215 1722q0 41 30.5 71t78.5 30q45 0 75.5 -30t30.5 -71q0 -39 -30.5 -68.5t-75.5 -29.5q-47 0 -78 29.5t-31 68.5zM748 1722q0 41 30.5 71t77.5 30q45 0 76 -30t31 -71q0 -39 -31 -68.5t-76 -29.5q-47 0 -77.5 29.5t-30.5 68.5z" />
<glyph unicode="&#xa9;" horiz-adv-x="2002" d="M131 717q0 346 233.5 553t637 207t637 -207t233.5 -553t-233.5 -553t-637 -207t-637 207t-233.5 553zM207 716.5q0 -325.5 214 -506.5t580.5 -181t579.5 181t213 506.5t-213 507t-579.5 181.5t-580.5 -181.5t-214 -507zM410 719q0 242 160.5 383t428.5 141 q182 0 317.5 -70.5t213.5 -189.5l-127 -61q-127 195 -395 194q-209 0 -333 -102.5t-124 -295t124 -294.5t333 -102q268 0 401 200l129 -63q-82 -121 -219 -192.5t-320 -71.5q-268 0 -428.5 141t-160.5 383z" />
<glyph unicode="&#xaa;" horiz-adv-x="1169" d="M121 917.5q0 135.5 119.5 201t273.5 65.5q121 0 213 -40t129 -112v74q0 266 -313 266q-172 0 -299 -82l-51 88q155 97 370 97q197 0 306.5 -94.5t109.5 -274.5v-279q0 -84 43 -147h-129q-37 47 -37 119v4q-37 -72 -129 -112t-213 -40q-154 0 -273.5 65.5t-119.5 201z M244 918q0 -53 28.5 -91.5t75.5 -54.5t90 -23.5t90 -7.5q111 0 201 40t127 120v35q-37 80 -127 120t-201 40q-66 0 -123 -11.5t-109 -54.5t-52 -112z" />
<glyph unicode="&#xab;" horiz-adv-x="1300" d="M96 612l432 -438h189l-434 438l434 439h-189zM553 612l432 -438h189l-435 438l435 439h-189z" />
<glyph unicode="&#xac;" d="M176 535v145h1167v-553h-157v408h-1010z" />
<glyph unicode="&#xad;" horiz-adv-x="1224" d="M174 539v147h875v-147h-875z" />
<glyph unicode="&#xae;" horiz-adv-x="1185" d="M131 1032.5q0 190.5 129 306t332 115.5t333 -115.5t130 -306t-130 -306.5t-333 -116t-332 116t-129 306.5zM182 1032q0 -172 113 -273.5t297 -101.5q182 0 295.5 101.5t113.5 273.5t-113.5 273.5t-295.5 101.5q-184 0 -297 -101.5t-113 -273.5zM377 819v436h287 q80 0 128 -37t48 -100q0 -55 -36 -91t-99 -46l145 -162h-90l-142 160h-165v-160h-76zM451 1036h192q117 0 117 80t-117 80h-192v-160z" />
<glyph unicode="&#xaf;" horiz-adv-x="1163" d="M186 1649v141h791v-141h-791z" />
<glyph unicode="&#xb0;" horiz-adv-x="882" d="M125 1174q0 123 88 203.5t229 80.5q139 0 227.5 -80t88.5 -204.5t-87 -204.5t-228.5 -80t-229.5 80t-88 205zM248 1173.5q0 -79.5 51 -127t141 -47.5q92 0 143.5 47.5t51.5 127t-51.5 127t-143.5 47.5q-90 0 -141 -47.5t-51 -127z" />
<glyph unicode="&#xb1;" d="M182 43v135h1153v-135h-1153zM182 715v135h502v436h147v-436h504v-135h-504v-436h-147v436h-502z" />
<glyph unicode="&#xb2;" horiz-adv-x="960" d="M70 958v70q37 207 407 346q174 70 215 103q53 41 53 96q0 70 -76.5 109.5t-179.5 39.5q-195 0 -311 -155l-88 53q143 203 406 203q147 0 256.5 -66.5t109.5 -181.5q0 -100 -80 -164.5t-235 -124.5q-154 -59 -237 -110.5t-101 -114.5h672v-103h-811z" />
<glyph unicode="&#xb3;" horiz-adv-x="991" d="M68 1143l100 45q98 -154 326 -154q121 0 204.5 45t83.5 125q0 152 -303 152h-106v94h106q274 0 275 131q0 70 -79 105.5t-190 35.5q-201 0 -295 -135l-92 55q47 82 157 131.5t243 49.5q154 0 264 -60.5t110 -165.5q0 -80 -62 -133t-146 -59q96 -12 168.5 -65.5 t72.5 -147.5q0 -117 -114.5 -187.5t-292.5 -70.5q-143 0 -259 57.5t-171 151.5z" />
<glyph unicode="&#xb4;" horiz-adv-x="1191" d="M299 1597l338 308h274l-452 -308h-160z" />
<glyph unicode="&#xb6;" horiz-adv-x="1865" d="M88 983q0 211 149.5 331t403.5 120h987v-1434h-151v1292h-308v-1292h-151v532h-377q-254 0 -403.5 119t-149.5 332zM238 983.5q0 -149.5 106.5 -229.5t298.5 -80h375v618h-375q-193 0 -299 -79.5t-106 -229z" />
<glyph unicode="&#xb7;" horiz-adv-x="524" d="M139 584q0 49 35 81.5t88 32.5t88 -32.5t35 -81.5t-35 -81t-88 -32t-88 32t-35 81z" />
<glyph unicode="&#xb8;" horiz-adv-x="1187" d="M283 -393l211 319l174 -32l-244 -324z" />
<glyph unicode="&#xb9;" horiz-adv-x="559" d="M51 1548v103q145 20 275 143h88v-838h-117v693q-88 -76 -246 -101z" />
<glyph unicode="&#xba;" horiz-adv-x="1183" d="M125 1062.5q0 190.5 125 301.5t342 111q219 0 343 -111t124 -301.5t-124 -301t-343 -110.5q-217 0 -342 110.5t-125 301zM246 1062.5q0 -147.5 92 -225t254 -77.5q164 0 255 77.5t91 225t-91 225.5t-255 78q-162 0 -254 -78t-92 -225.5z" />
<glyph unicode="&#xbb;" horiz-adv-x="1300" d="M127 174h188l433 438l-433 439h-188l434 -439zM584 174h188l432 438l-432 439h-188l434 -439z" />
<glyph unicode="&#xbc;" horiz-adv-x="1984" d="M51 1188v102q145 20 275 144h88v-838h-117v692q-88 -76 -246 -100zM342 0l895 1434h133l-895 -1434h-133zM1016 207v74l641 557h102v-533h170v-98h-170v-207h-112v207h-631zM1178 305h469v393z" />
<glyph unicode="&#xbd;" horiz-adv-x="2021" d="M51 1188v102q145 20 275 144h88v-838h-117v692q-88 -76 -246 -100zM326 0l895 1434h133l-895 -1434h-133zM1130 0v70q37 207 408 346q174 70 215 102q53 41 53 96q0 70 -76.5 110t-179.5 40q-195 0 -311 -156l-88 54q143 203 405 202q147 0 257 -66.5t110 -181.5 q0 -100 -80 -164.5t-235 -123.5q-154 -59 -237 -110.5t-101 -115.5h672v-102h-812z" />
<glyph unicode="&#xbe;" horiz-adv-x="2367" d="M68 780l100 45q98 -154 326 -153q121 0 204.5 45t83.5 125q0 152 -303 151h-106v94h106q274 0 275 132q0 70 -79 105.5t-190 35.5q-201 0 -295 -135l-92 55q47 82 157 131t243 49q154 0 264 -60.5t110 -164.5q0 -80 -62 -133t-146 -60q96 -12 168.5 -65t72.5 -148 q0 -117 -114.5 -187.5t-292.5 -70.5q-143 0 -259 57.5t-171 151.5zM725 0l895 1434h133l-895 -1434h-133zM1399 207v74l641 557h102v-533h170v-98h-170v-207h-112v207h-631zM1561 305h469v393z" />
<glyph unicode="&#xbf;" horiz-adv-x="1513" d="M100 51q0 176 163 278.5t431 121.5v254h152v-379q-569 -35 -570 -275q0 -86 67 -146.5t166 -86t220 -25.5q383 0 574 277l133 -84q-109 -160 -293.5 -252t-419.5 -92q-162 0 -300 45t-230.5 140t-92.5 224zM643 1024q0 49 35 81t88 32t88 -32t35 -81t-35 -82t-88 -33 t-88 33t-35 82z" />
<glyph unicode="&#xc0;" horiz-adv-x="1835" d="M33 0l788 1434h193l788 -1434h-194l-209 385h-967l-209 -385h-190zM485 1905h275l338 -308h-160zM516 541h799l-400 735z" />
<glyph unicode="&#xc1;" horiz-adv-x="1835" d="M33 0l788 1434h193l788 -1434h-194l-209 385h-967l-209 -385h-190zM516 541h799l-400 735zM739 1597l338 308h275l-453 -308h-160z" />
<glyph unicode="&#xc2;" horiz-adv-x="1835" d="M33 0l788 1434h193l788 -1434h-194l-209 385h-967l-209 -385h-190zM504 1597l319 308h187l319 -308h-194l-220 211l-217 -211h-194zM516 541h799l-400 735z" />
<glyph unicode="&#xc3;" horiz-adv-x="1835" d="M33 0l788 1434h193l788 -1434h-194l-209 385h-967l-209 -385h-190zM412 1716q92 174 301 174q92 0 217 -58t200 -58q117 0 193 106l100 -65q-37 -72 -112.5 -123.5t-188.5 -51.5q-94 0 -218.5 58.5t-198.5 58.5q-121 0 -193 -106zM516 541h799l-400 735z" />
<glyph unicode="&#xc4;" horiz-adv-x="1835" d="M33 0l788 1434h193l788 -1434h-194l-209 385h-967l-209 -385h-190zM516 541h799l-400 735zM543 1722q0 41 30.5 71t77.5 30q45 0 76 -30t31 -71q0 -39 -31 -68.5t-76 -29.5q-47 0 -77.5 29.5t-30.5 68.5zM1075 1722q0 41 31 71t78 30q45 0 75.5 -30t30.5 -71 q0 -39 -30.5 -68.5t-75.5 -29.5q-47 0 -78 29.5t-31 68.5z" />
<glyph unicode="&#xc5;" horiz-adv-x="1835" d="M33 0l788 1434h193l788 -1434h-194l-209 385h-967l-209 -385h-190zM516 541h799l-400 735zM653 1802q0 104 76 161.5t188.5 57.5t188.5 -57t76 -162q0 -106 -75 -162.5t-189.5 -56.5t-189.5 56.5t-75 162.5zM776 1802.5q0 -59.5 39 -92.5t104.5 -33t104.5 33t39 92.5 t-39 92t-104.5 32.5t-104.5 -32.5t-39 -92z" />
<glyph unicode="&#xc6;" horiz-adv-x="2838" d="M-12 0l1261 1434h117h1335v-160h-1194v-465h1012v-160h-1012v-489h1215v-160h-1387v365h-819l-319 -365h-209zM653 520h682v778z" />
<glyph unicode="&#xc7;" horiz-adv-x="1816" d="M131 717q0 350 232.5 555t635.5 205q252 0 438.5 -94.5t291.5 -258.5l-164 -82q-162 274 -568 275q-319 0 -504.5 -154.5t-185.5 -445.5t185.5 -445.5t504.5 -154.5q410 0 568 274l164 -82q-104 -166 -292 -259t-444 -93q-399 0 -630.5 205t-231.5 555zM666 -393l211 319 l174 -32l-244 -324z" />
<glyph unicode="&#xc8;" horiz-adv-x="1740" d="M238 0v1434h1366v-160h-1194v-465h1011v-160h-1011v-489h1214v-160h-1386zM479 1905h275l338 -308h-160z" />
<glyph unicode="&#xc9;" horiz-adv-x="1740" d="M238 0v1434h1366v-160h-1194v-465h1011v-160h-1011v-489h1214v-160h-1386zM733 1597l338 308h275l-453 -308h-160z" />
<glyph unicode="&#xca;" horiz-adv-x="1740" d="M238 0v1434h1366v-160h-1194v-465h1011v-160h-1011v-489h1214v-160h-1386zM498 1597h194l217 211l219 -211h195l-319 308h-187z" />
<glyph unicode="&#xcb;" horiz-adv-x="1740" d="M238 0v1434h1366v-160h-1194v-465h1011v-160h-1011v-489h1214v-160h-1386zM537 1722q0 41 30.5 71t77.5 30q45 0 76 -30t31 -71q0 -39 -31 -68.5t-76 -29.5q-47 0 -77.5 29.5t-30.5 68.5zM1069 1722q0 41 30.5 71t78.5 30q45 0 75.5 -30t30.5 -71q0 -39 -30.5 -68.5 t-75.5 -29.5q-47 0 -78 29.5t-31 68.5z" />
<glyph unicode="&#xcc;" horiz-adv-x="647" d="M-109 1905h275l338 -308h-160zM238 0v1434h172v-1434h-172z" />
<glyph unicode="&#xcd;" horiz-adv-x="647" d="M145 1597l338 308h275l-453 -308h-160zM238 0v1434h172v-1434h-172z" />
<glyph unicode="&#xce;" horiz-adv-x="647" d="M-90 1597h194l218 211l219 -211h194l-319 308h-187zM238 0v1434h172v-1434h-172z" />
<glyph unicode="&#xcf;" horiz-adv-x="647" d="M-51 1722q0 41 30.5 71t77.5 30q45 0 76 -30t31 -71q0 -39 -31 -68.5t-76 -29.5q-47 0 -77.5 29.5t-30.5 68.5zM238 0v1434h172v-1434h-172zM481 1722q0 41 31 71t78 30q45 0 75.5 -30t30.5 -71q0 -39 -30.5 -68.5t-75.5 -29.5q-47 0 -78 29.5t-31 68.5z" />
<glyph unicode="&#xd0;" horiz-adv-x="1949" d="M47 659v144h215v631h696q393 0 627 -193.5t234 -523.5t-233.5 -523.5t-627.5 -193.5h-696v659h-215zM434 160h512q317 0 506.5 142t189.5 414.5t-189 415t-507 142.5h-512v-471h467v-144h-467v-499z" />
<glyph unicode="&#xd1;" horiz-adv-x="1998" d="M238 0v1434h186l1169 -1182v1182h168v-1434h-151l-1204 1214v-1214h-168zM496 1716q92 174 301 174q92 0 217 -58t200 -58q117 0 193 106l100 -65q-37 -72 -112.5 -123.5t-188.5 -51.5q-94 0 -219 58.5t-199 58.5q-121 0 -192 -106z" />
<glyph unicode="&#xd2;" horiz-adv-x="2007" d="M131 717q0 352 232.5 556t640 204t640 -204t232.5 -556t-232.5 -556t-640 -204t-640 204t-232.5 556zM307 716.5q0 -284.5 187.5 -442t509 -157.5t509 157.5t187.5 442t-187.5 442.5t-509 158t-509 -158t-187.5 -442.5zM571 1905h275l338 -308h-160z" />
<glyph unicode="&#xd3;" horiz-adv-x="2007" d="M131 717q0 352 232.5 556t640 204t640 -204t232.5 -556t-232.5 -556t-640 -204t-640 204t-232.5 556zM307 716.5q0 -284.5 187.5 -442t509 -157.5t509 157.5t187.5 442t-187.5 442.5t-509 158t-509 -158t-187.5 -442.5zM825 1597l338 308h275l-453 -308h-160z" />
<glyph unicode="&#xd4;" horiz-adv-x="2007" d="M131 717q0 352 232.5 556t640 204t640 -204t232.5 -556t-232.5 -556t-640 -204t-640 204t-232.5 556zM307 716.5q0 -284.5 187.5 -442t509 -157.5t509 157.5t187.5 442t-187.5 442.5t-509 158t-509 -158t-187.5 -442.5zM590 1597h194l217 211l220 -211h194l-319 308h-187 z" />
<glyph unicode="&#xd5;" horiz-adv-x="2007" d="M131 717q0 352 232.5 556t640 204t640 -204t232.5 -556t-232.5 -556t-640 -204t-640 204t-232.5 556zM307 716.5q0 -284.5 187.5 -442t509 -157.5t509 157.5t187.5 442t-187.5 442.5t-509 158t-509 -158t-187.5 -442.5zM498 1716q92 174 301 174q92 0 217 -58t201 -58 q116 0 192 106l100 -65q-37 -72 -112.5 -123.5t-188.5 -51.5q-94 0 -219 58.5t-198 58.5q-121 0 -193 -106z" />
<glyph unicode="&#xd6;" horiz-adv-x="2007" d="M131 717q0 352 232.5 556t640 204t640 -204t232.5 -556t-232.5 -556t-640 -204t-640 204t-232.5 556zM307 716.5q0 -284.5 187.5 -442t509 -157.5t509 157.5t187.5 442t-187.5 442.5t-509 158t-509 -158t-187.5 -442.5zM629 1722q0 41 30.5 71t77.5 30q45 0 76 -30 t31 -71q0 -39 -31 -68.5t-76 -29.5q-47 0 -77.5 29.5t-30.5 68.5zM1161 1722q0 41 31 71t78 30q45 0 75.5 -30t30.5 -71q0 -39 -30.5 -68.5t-75.5 -29.5q-47 0 -78 29.5t-31 68.5z" />
<glyph unicode="&#xd7;" horiz-adv-x="1521" d="M266 229l387 385l-387 387l109 109l387 -387l387 387l108 -109l-389 -385l389 -387l-108 -110l-389 389l-389 -385z" />
<glyph unicode="&#xd8;" horiz-adv-x="2007" d="M131 717q0 352 232.5 556t640.5 204q240 0 426 -76l167 221h187l-219 -289q311 -203 311 -616q0 -352 -232.5 -556t-639.5 -204q-242 0 -429 76l-167 -221h-187l221 290q-311 201 -311 615zM307 717q0 -322 238 -479l782 1028q-147 51 -323 51q-322 0 -509.5 -157.5 t-187.5 -442.5zM680 170q144 -53 324 -53q322 0 509 157.5t187 442.5q0 319 -240 481z" />
<glyph unicode="&#xd9;" horiz-adv-x="1931" d="M209 676v758h172v-748q0 -266 153.5 -417.5t432.5 -151.5q276 0 429.5 151.5t153.5 417.5v748h172v-758q0 -324 -197.5 -521.5t-558 -197.5t-559 197.5t-198.5 521.5zM535 1905h274l338 -308h-160z" />
<glyph unicode="&#xda;" horiz-adv-x="1931" d="M209 676v758h172v-748q0 -266 153.5 -417.5t432.5 -151.5q276 0 429.5 151.5t153.5 417.5v748h172v-758q0 -324 -197.5 -521.5t-558 -197.5t-559 197.5t-198.5 521.5zM788 1597l338 308h275l-453 -308h-160z" />
<glyph unicode="&#xdb;" horiz-adv-x="1931" d="M209 676v758h172v-748q0 -266 153.5 -417.5t432.5 -151.5q276 0 429.5 151.5t153.5 417.5v748h172v-758q0 -324 -197.5 -521.5t-558 -197.5t-559 197.5t-198.5 521.5zM553 1597h195l217 211l219 -211h194l-319 308h-187z" />
<glyph unicode="&#xdc;" horiz-adv-x="1931" d="M209 676v758h172v-748q0 -266 153.5 -417.5t432.5 -151.5q276 0 429.5 151.5t153.5 417.5v748h172v-758q0 -324 -197.5 -521.5t-558 -197.5t-559 197.5t-198.5 521.5zM592 1722q0 41 30.5 71t77.5 30q45 0 76 -30t31 -71q0 -39 -31 -68.5t-76 -29.5q-47 0 -77.5 29.5 t-30.5 68.5zM1124 1722q0 41 31 71t78 30q45 0 75.5 -30t30.5 -71q0 -39 -30.5 -68.5t-75.5 -29.5q-47 0 -78 29.5t-31 68.5z" />
<glyph unicode="&#xdd;" horiz-adv-x="1685" d="M37 1434h207l602 -777l598 777h205l-719 -932v-502h-172v502zM668 1597l338 308h274l-453 -308h-159z" />
<glyph unicode="&#xde;" horiz-adv-x="1832" d="M238 0v1434h172v-248h788q248 0 397.5 -122t149.5 -333q0 -213 -149.5 -334t-397.5 -121h-788v-276h-172zM410 428h776q180 0 281.5 76t101.5 227.5t-101.5 227t-281.5 75.5h-776v-606z" />
<glyph unicode="&#xdf;" horiz-adv-x="1589" d="M203 0v963q0 264 161.5 428.5t462.5 164.5q244 0 405 -108.5t161 -290.5q0 -135 -90.5 -230.5t-245.5 -117.5q178 -14 298 -118.5t120 -282.5q0 -193 -144.5 -310.5t-390.5 -117.5q-190 0 -352 57l49 129q123 -41 264 -41q193 0 297.5 78t104.5 225q0 150 -104.5 225.5 t-303.5 75.5h-156v139h86q190 0 295 69t105 202q0 139 -109.5 204.5t-288.5 65.5q-223 0 -339.5 -111.5t-116.5 -314.5v-983h-168z" />
<glyph unicode="&#xe0;" horiz-adv-x="1527" d="M92 354q0 104 53.5 185.5t140.5 124.5t182 64.5t194 21.5q172 0 304 -62.5t201 -161.5v92q0 201 -114.5 297.5t-345.5 96.5q-236 0 -439 -129l-78 123q100 68 247.5 109.5t297.5 41.5q285 0 444.5 -138t159.5 -401v-401q0 -127 54 -217h-179q-47 80 -47 178v4 q-72 -98 -202.5 -160.5t-302.5 -62.5q-98 0 -192.5 20.5t-182.5 64.5t-141.5 124t-53.5 186zM258 354.5q0 -73.5 41 -127t107.5 -80t133 -38t136.5 -11.5q156 0 291.5 57.5t203.5 178.5v41q-68 121 -202.5 178t-292.5 57q-70 0 -136.5 -11t-133 -37.5t-107.5 -80t-41 -127z M328 1587h274l338 -307h-160z" />
<glyph unicode="&#xe1;" horiz-adv-x="1527" d="M92 354q0 104 53.5 185.5t140.5 124.5t182 64.5t194 21.5q172 0 304 -62.5t201 -161.5v92q0 201 -114.5 297.5t-345.5 96.5q-236 0 -439 -129l-78 123q100 68 247.5 109.5t297.5 41.5q285 0 444.5 -138t159.5 -401v-401q0 -127 54 -217h-179q-47 80 -47 178v4 q-72 -98 -202.5 -160.5t-302.5 -62.5q-98 0 -192.5 20.5t-182.5 64.5t-141.5 124t-53.5 186zM258 354.5q0 -73.5 41 -127t107.5 -80t133 -38t136.5 -11.5q156 0 291.5 57.5t203.5 178.5v41q-68 121 -202.5 178t-292.5 57q-70 0 -136.5 -11t-133 -37.5t-107.5 -80t-41 -127z M582 1280l338 307h274l-453 -307h-159z" />
<glyph unicode="&#xe2;" horiz-adv-x="1527" d="M92 354q0 104 53.5 185.5t140.5 124.5t182 64.5t194 21.5q172 0 304 -62.5t201 -161.5v92q0 201 -114.5 297.5t-345.5 96.5q-236 0 -439 -129l-78 123q100 68 247.5 109.5t297.5 41.5q285 0 444.5 -138t159.5 -401v-401q0 -127 54 -217h-179q-47 80 -47 178v4 q-72 -98 -202.5 -160.5t-302.5 -62.5q-98 0 -192.5 20.5t-182.5 64.5t-141.5 124t-53.5 186zM258 354.5q0 -73.5 41 -127t107.5 -80t133 -38t136.5 -11.5q156 0 291.5 57.5t203.5 178.5v41q-68 121 -202.5 178t-292.5 57q-70 0 -136.5 -11t-133 -37.5t-107.5 -80t-41 -127z M346 1280h195l217 211l219 -211h194l-319 307h-186z" />
<glyph unicode="&#xe3;" horiz-adv-x="1527" d="M92 354q0 104 53.5 185.5t140.5 124.5t182 64.5t194 21.5q172 0 304 -62.5t201 -161.5v92q0 201 -114.5 297.5t-345.5 96.5q-236 0 -439 -129l-78 123q100 68 247.5 109.5t297.5 41.5q285 0 444.5 -138t159.5 -401v-401q0 -127 54 -217h-179q-47 80 -47 178v4 q-72 -98 -202.5 -160.5t-302.5 -62.5q-98 0 -192.5 20.5t-182.5 64.5t-141.5 124t-53.5 186zM254 1399q92 174 301 174q92 0 217 -58.5t201 -58.5q116 1 192 107l101 -66q-37 -72 -113 -123t-188 -51q-94 0 -219 58.5t-199 58.5q-121 0 -193 -107zM258 354.5 q0 -73.5 41 -127t107.5 -80t133 -38t136.5 -11.5q156 0 291.5 57.5t203.5 178.5v41q-68 121 -202.5 178t-292.5 57q-70 0 -136.5 -11t-133 -37.5t-107.5 -80t-41 -127z" />
<glyph unicode="&#xe4;" horiz-adv-x="1527" d="M92 354q0 104 53.5 185.5t140.5 124.5t182 64.5t194 21.5q172 0 304 -62.5t201 -161.5v92q0 201 -114.5 297.5t-345.5 96.5q-236 0 -439 -129l-78 123q100 68 247.5 109.5t297.5 41.5q285 0 444.5 -138t159.5 -401v-401q0 -127 54 -217h-179q-47 80 -47 178v4 q-72 -98 -202.5 -160.5t-302.5 -62.5q-98 0 -192.5 20.5t-182.5 64.5t-141.5 124t-53.5 186zM258 354.5q0 -73.5 41 -127t107.5 -80t133 -38t136.5 -11.5q156 0 291.5 57.5t203.5 178.5v41q-68 121 -202.5 178t-292.5 57q-70 0 -136.5 -11t-133 -37.5t-107.5 -80t-41 -127z M385 1405q0 41 30.5 70.5t78.5 29.5q45 0 75.5 -29.5t30.5 -70.5q0 -39 -30.5 -68.5t-75.5 -29.5q-47 0 -78 29.5t-31 68.5zM918 1405q0 41 30.5 70.5t77.5 29.5q45 0 76 -29.5t31 -70.5q0 -39 -31 -68.5t-76 -29.5q-47 0 -77.5 29.5t-30.5 68.5z" />
<glyph unicode="&#xe5;" horiz-adv-x="1527" d="M92 354q0 104 53.5 185.5t140.5 124.5t182 64.5t194 21.5q172 0 304 -62.5t201 -161.5v92q0 201 -114.5 297.5t-345.5 96.5q-236 0 -439 -129l-78 123q100 68 247.5 109.5t297.5 41.5q285 0 444.5 -138t159.5 -401v-401q0 -127 54 -217h-179q-47 80 -47 178v4 q-72 -98 -202.5 -160.5t-302.5 -62.5q-98 0 -192.5 20.5t-182.5 64.5t-141.5 124t-53.5 186zM258 354.5q0 -73.5 41 -127t107.5 -80t133 -38t136.5 -11.5q156 0 291.5 57.5t203.5 178.5v41q-68 121 -202.5 178t-292.5 57q-70 0 -136.5 -11t-133 -37.5t-107.5 -80t-41 -127z M496 1485q0 104 75.5 161.5t188 57.5t188.5 -57.5t76 -161.5q0 -106 -75 -162.5t-189.5 -56.5t-189 56t-74.5 163zM618 1484.5q0 -59.5 39 -92t104.5 -32.5t104.5 32.5t39 92t-39 92.5t-104.5 33t-104.5 -33t-39 -92.5z" />
<glyph unicode="&#xe6;" horiz-adv-x="2580" d="M92 354q0 104 53.5 185.5t140.5 124.5t182 64.5t194 21.5q174 0 305 -64.5t200 -169.5v102q0 397 -460 398q-238 0 -443 -131l-67 131q223 141 538 141q381 0 527 -235q174 238 561 237q301 0 476 -157.5t175 -442.5q0 -20 -4 -37h-1131v-112q74 -309 502 -310 q162 0 273.5 41t212.5 133l108 -114q-223 -203 -602 -203q-428 0 -596 276q-74 -133 -234.5 -203.5t-340.5 -70.5q-98 0 -192.5 20.5t-182.5 64.5t-141.5 124t-53.5 186zM258 354.5q0 -73.5 41 -128t107.5 -81t133 -38t136.5 -11.5q156 0 291.5 58.5t203.5 179.5v41 q-68 123 -202.5 180t-292.5 57q-70 0 -136.5 -11t-133 -37.5t-107.5 -81t-41 -128zM1335 692q2 -10 2 -26h965q-61 352 -477 352q-420 0 -490 -326z" />
<glyph unicode="&#xe7;" horiz-adv-x="1466" d="M119 557.5q0 276.5 180 439t496 162.5q393 0 581 -268l-164 -82q-57 102 -170.5 151.5t-244.5 49.5q-229 0 -368.5 -116t-139.5 -337q0 -219 139 -335t369 -116q133 0 248.5 51.5t171.5 155.5l165 -73q-176 -283 -587 -283q-315 0 -495.5 162t-180.5 438.5zM463 -393 l211 319l174 -32l-244 -324z" />
<glyph unicode="&#xe8;" horiz-adv-x="1546" d="M119 557.5q0 278.5 178 440t491 161.5q301 0 476.5 -157.5t175.5 -442.5q0 -20 -4 -37h-1147q12 -207 150.5 -314.5t367.5 -107.5q162 0 273.5 42t209.5 134l111 -116q-223 -203 -602 -203q-322 0 -501 161t-179 439.5zM297 662h973q-35 178 -163 266t-316 88 q-199 0 -331 -91t-163 -263zM356 1587h275l338 -307h-160z" />
<glyph unicode="&#xe9;" horiz-adv-x="1546" d="M119 557.5q0 278.5 178 440t491 161.5q301 0 476.5 -157.5t175.5 -442.5q0 -20 -4 -37h-1147q12 -207 150.5 -314.5t367.5 -107.5q162 0 273.5 42t209.5 134l111 -116q-223 -203 -602 -203q-322 0 -501 161t-179 439.5zM297 662h973q-35 178 -163 266t-316 88 q-199 0 -331 -91t-163 -263zM610 1280l338 307h275l-453 -307h-160z" />
<glyph unicode="&#xea;" horiz-adv-x="1546" d="M119 557.5q0 278.5 178 440t491 161.5q301 0 476.5 -157.5t175.5 -442.5q0 -20 -4 -37h-1147q12 -207 150.5 -314.5t367.5 -107.5q162 0 273.5 42t209.5 134l111 -116q-223 -203 -602 -203q-322 0 -501 161t-179 439.5zM297 662h973q-35 178 -163 266t-316 88 q-199 0 -331 -91t-163 -263zM375 1280l319 307h187l319 -307h-194l-220 211l-217 -211h-194z" />
<glyph unicode="&#xeb;" horiz-adv-x="1546" d="M119 557.5q0 278.5 178 440t491 161.5q301 0 476.5 -157.5t175.5 -442.5q0 -20 -4 -37h-1147q12 -207 150.5 -314.5t367.5 -107.5q162 0 273.5 42t209.5 134l111 -116q-223 -203 -602 -203q-322 0 -501 161t-179 439.5zM297 662h973q-35 178 -163 266t-316 88 q-199 0 -331 -91t-163 -263zM414 1405q0 41 30.5 70.5t77.5 29.5q45 0 76 -29.5t31 -70.5q0 -39 -31 -68.5t-76 -29.5q-47 0 -77.5 29.5t-30.5 68.5zM946 1405q0 41 31 70.5t78 29.5q45 0 75.5 -29.5t30.5 -70.5q0 -39 -30.5 -68.5t-75.5 -29.5q-47 0 -78 29.5t-31 68.5z " />
<glyph unicode="&#xec;" horiz-adv-x="585" d="M-139 1587h274l338 -307h-160zM209 0v1116h168v-1116h-168z" />
<glyph unicode="&#xed;" horiz-adv-x="585" d="M115 1280l338 307h274l-453 -307h-159zM209 0v1116h168v-1116h-168z" />
<glyph unicode="&#xee;" horiz-adv-x="585" d="M-121 1280h195l217 211l219 -211h195l-320 307h-186zM209 0v1116h168v-1116h-168z" />
<glyph unicode="&#xef;" horiz-adv-x="585" d="M-82 1405q0 41 31 70.5t78 29.5q45 0 75.5 -29.5t30.5 -70.5q0 -39 -30.5 -68.5t-75.5 -29.5q-47 0 -78 29.5t-31 68.5zM209 0v1116h168v-1116h-168zM451 1405q0 41 30.5 70.5t77.5 29.5q45 0 76 -29.5t31 -70.5q0 -39 -31 -68.5t-76 -29.5q-47 0 -77.5 29.5t-30.5 68.5z " />
<glyph unicode="&#xf0;" horiz-adv-x="1595" d="M119 549q0 266 176 423.5t446 157.5q186 0 338 -65.5t221 -218.5q-74 279 -417 426l-340 -127l-51 112l208 78q-121 35 -266 56l27 145q274 -43 457 -121l296 111l52 -113l-197 -72q408 -240 408 -735q0 -649 -678 -649q-317 0 -498.5 159.5t-181.5 432.5zM287 549 q0 -217 140.5 -330t369.5 -113q231 0 371.5 113t140.5 330q0 215 -140.5 327.5t-371.5 112.5q-229 0 -369.5 -112.5t-140.5 -327.5z" />
<glyph unicode="&#xf1;" horiz-adv-x="1613" d="M203 0v1116h168v-231q80 129 218 200.5t314 71.5q252 0 382 -144.5t130 -381.5v-631h-168v618q0 389 -377 390q-348 0 -499 -308v-700h-168zM301 1399q92 174 301 174q92 0 217 -58.5t201 -58.5q116 1 192 107l101 -66q-37 -72 -113 -123t-188 -51q-94 0 -219 58.5 t-199 58.5q-121 0 -193 -107z" />
<glyph unicode="&#xf2;" horiz-adv-x="1593" d="M119 557.5q0 278.5 180 440t497.5 161.5t498 -161.5t180.5 -440t-180.5 -439.5t-498 -161t-497.5 161t-180 439.5zM289 557q0 -219 140 -335t367.5 -116t368 116t140.5 335t-140.5 336t-368 117t-367.5 -117t-140 -336zM365 1587h274l338 -307h-160z" />
<glyph unicode="&#xf3;" horiz-adv-x="1593" d="M119 557.5q0 278.5 180 440t497.5 161.5t498 -161.5t180.5 -440t-180.5 -439.5t-498 -161t-497.5 161t-180 439.5zM289 557q0 -219 140 -335t367.5 -116t368 116t140.5 335t-140.5 336t-368 117t-367.5 -117t-140 -336zM618 1280l338 307h275l-453 -307h-160z" />
<glyph unicode="&#xf4;" horiz-adv-x="1593" d="M119 557.5q0 278.5 180 440t497.5 161.5t498 -161.5t180.5 -440t-180.5 -439.5t-498 -161t-497.5 161t-180 439.5zM289 557q0 -219 140 -335t367.5 -116t368 116t140.5 335t-140.5 336t-368 117t-367.5 -117t-140 -336zM383 1280h195l217 211l219 -211h194l-319 307h-187 z" />
<glyph unicode="&#xf5;" horiz-adv-x="1593" d="M119 557.5q0 278.5 180 440t497.5 161.5t498 -161.5t180.5 -440t-180.5 -439.5t-498 -161t-497.5 161t-180 439.5zM289 557q0 -219 140 -335t367.5 -116t368 116t140.5 335t-140.5 336t-368 117t-367.5 -117t-140 -336zM291 1399q92 174 301 174q92 0 217 -58.5 t201 -58.5q116 1 192 107l101 -66q-37 -72 -113 -123t-189 -51q-94 0 -219 58.5t-198 58.5q-121 0 -193 -107z" />
<glyph unicode="&#xf6;" horiz-adv-x="1593" d="M119 557.5q0 278.5 180 440t497.5 161.5t498 -161.5t180.5 -440t-180.5 -439.5t-498 -161t-497.5 161t-180 439.5zM289 557q0 -219 140 -335t367.5 -116t368 116t140.5 335t-140.5 336t-368 117t-367.5 -117t-140 -336zM422 1405q0 41 30.5 70.5t77.5 29.5q45 0 76 -29.5 t31 -70.5q0 -39 -31 -68.5t-76 -29.5q-47 0 -77.5 29.5t-30.5 68.5zM954 1405q0 41 31 70.5t78 29.5q45 0 75.5 -29.5t30.5 -70.5q0 -39 -30.5 -68.5t-75.5 -29.5q-47 0 -78 29.5t-31 68.5z" />
<glyph unicode="&#xf7;" d="M182 530v164h1153v-164h-1153zM643 240q0 41 33 73.5t82 32.5t81.5 -32.5t32.5 -73.5q0 -39 -32.5 -73t-81.5 -34t-82 34t-33 73zM643 985q0 39 33 73t82 34t81.5 -34t32.5 -73q0 -41 -32.5 -73.5t-81.5 -32.5t-82 32.5t-33 73.5z" />
<glyph unicode="&#xf8;" horiz-adv-x="1593" d="M119 557q0 279 180 440.5t498 161.5q154 0 282 -41l119 187h158l-154 -242q272 -156 273 -506q0 -279 -180.5 -439.5t-497.5 -160.5q-150 0 -277 39l-119 -184h-157l151 237q-276 156 -276 508zM289 557q0 -254 192 -373l512 799q-86 27 -196 27q-227 0 -367.5 -117 t-140.5 -336zM606 131q87 -25 191 -25q227 0 367.5 116t140.5 335q0 254 -189 373z" />
<glyph unicode="&#xf9;" horiz-adv-x="1613" d="M199 485v631h168v-618q0 -389 376 -389q348 0 500 307v700h168v-1116h-168v231q-80 -129 -218 -200.5t-314 -71.5q-252 0 -382 144.5t-130 381.5zM354 1587h275l338 -307h-160z" />
<glyph unicode="&#xfa;" horiz-adv-x="1613" d="M199 485v631h168v-618q0 -389 376 -389q348 0 500 307v700h168v-1116h-168v231q-80 -129 -218 -200.5t-314 -71.5q-252 0 -382 144.5t-130 381.5zM608 1280l338 307h275l-453 -307h-160z" />
<glyph unicode="&#xfb;" horiz-adv-x="1613" d="M199 485v631h168v-618q0 -389 376 -389q348 0 500 307v700h168v-1116h-168v231q-80 -129 -218 -200.5t-314 -71.5q-252 0 -382 144.5t-130 381.5zM373 1280h194l217 211l220 -211h194l-319 307h-187z" />
<glyph unicode="&#xfc;" horiz-adv-x="1613" d="M199 485v631h168v-618q0 -389 376 -389q348 0 500 307v700h168v-1116h-168v231q-80 -129 -218 -200.5t-314 -71.5q-252 0 -382 144.5t-130 381.5zM412 1405q0 41 30.5 70.5t77.5 29.5q45 0 76 -29.5t31 -70.5q0 -39 -31 -68.5t-76 -29.5q-47 0 -77.5 29.5t-30.5 68.5z M944 1405q0 41 31 70.5t78 29.5q45 0 75.5 -29.5t30.5 -70.5q0 -39 -30.5 -68.5t-75.5 -29.5q-47 0 -78 29.5t-31 68.5z" />
<glyph unicode="&#xfd;" horiz-adv-x="1447" d="M45 1116h188l496 -868l490 868h184l-871 -1526h-182l289 488zM547 1280l338 307h274l-452 -307h-160z" />
<glyph unicode="&#xfe;" horiz-adv-x="1634" d="M203 -410v1926h168v-615q78 119 218 187.5t320 68.5q279 0 443 -164t164 -436t-164 -435t-443 -163q-180 0 -320 68.5t-218 187.5v-625h-168zM371 381q157 -272 495 -272q229 0 354.5 116.5t125.5 331.5q0 217 -125 334t-355 117q-338 0 -495 -273v-354z" />
<glyph unicode="&#xff;" horiz-adv-x="1447" d="M45 1116h188l496 -868l490 868h184l-871 -1526h-182l289 488zM350 1405q0 41 31 70.5t78 29.5q45 0 75.5 -29.5t30.5 -70.5q0 -39 -30.5 -68.5t-75.5 -29.5q-47 0 -78 29.5t-31 68.5zM883 1405q0 41 30.5 70.5t77.5 29.5q45 0 76 -29.5t31 -70.5q0 -39 -31 -68.5 t-76 -29.5q-47 0 -77.5 29.5t-30.5 68.5z" />
<glyph unicode="&#x152;" horiz-adv-x="3018" d="M131 717q0 330 233.5 523.5t626.5 193.5h697h1194v-160h-1194v-465h1011v-160h-1011v-489h1214v-160h-1386h-525q-393 0 -626.5 193.5t-233.5 523.5zM307 716.5q0 -272.5 189.5 -414.5t507.5 -142h512v1114h-512q-317 0 -507 -142.5t-190 -415z" />
<glyph unicode="&#x153;" horiz-adv-x="2732" d="M119 557.5q0 278.5 180 440t498 161.5q424 0 592 -274q168 274 585 274q301 0 476.5 -157.5t175.5 -442.5q0 -20 -5 -37h-1146q12 -207 150 -314.5t368 -107.5q162 0 273.5 41t211.5 133l109 -114q-223 -203 -602 -203q-424 0 -596 274q-168 -274 -592 -274 q-317 0 -497.5 161t-180.5 439.5zM289 557q0 -219 140 -335t367.5 -116t368 116t140.5 335t-140.5 336t-368 117t-367.5 -117t-140 -336zM1483 662h973q-35 178 -163.5 266t-316.5 88q-199 0 -331 -91t-162 -263z" />
<glyph unicode="&#x178;" horiz-adv-x="1685" d="M37 1434h207l602 -777l598 777h205l-719 -932v-502h-172v502zM471 1722q0 41 30.5 71t78.5 30q45 0 75.5 -30t30.5 -71q0 -39 -30.5 -68.5t-75.5 -29.5q-47 0 -78 29.5t-31 68.5zM1004 1722q0 41 30.5 71t77.5 30q45 0 76 -30t31 -71q0 -39 -31 -68.5t-76 -29.5 q-47 0 -77.5 29.5t-30.5 68.5z" />
<glyph unicode="&#x2dc;" horiz-adv-x="1200" d="M94 1716q92 174 301 174q92 0 217 -58t201 -58q117 0 193 106l100 -65q-37 -72 -112.5 -123.5t-188.5 -51.5q-94 0 -219 58.5t-199 58.5q-121 0 -192 -106z" />
<glyph unicode="&#x2000;" horiz-adv-x="1010" />
<glyph unicode="&#x2001;" horiz-adv-x="2021" />
<glyph unicode="&#x2002;" horiz-adv-x="1010" />
<glyph unicode="&#x2003;" horiz-adv-x="2021" />
<glyph unicode="&#x2004;" horiz-adv-x="673" />
<glyph unicode="&#x2005;" horiz-adv-x="505" />
<glyph unicode="&#x2006;" horiz-adv-x="336" />
<glyph unicode="&#x2007;" horiz-adv-x="336" />
<glyph unicode="&#x2008;" horiz-adv-x="252" />
<glyph unicode="&#x2009;" horiz-adv-x="404" />
<glyph unicode="&#x200a;" horiz-adv-x="112" />
<glyph unicode="&#x2010;" horiz-adv-x="1224" d="M174 539v147h875v-147h-875z" />
<glyph unicode="&#x2011;" horiz-adv-x="1224" d="M174 539v147h875v-147h-875z" />
<glyph unicode="&#x2012;" horiz-adv-x="1224" d="M174 539v147h875v-147h-875z" />
<glyph unicode="&#x2013;" horiz-adv-x="1626" d="M174 539v147h1276v-147h-1276z" />
<glyph unicode="&#x2014;" horiz-adv-x="2070" d="M174 539v147h1720v-147h-1720z" />
<glyph unicode="&#x2018;" horiz-adv-x="538" d="M152 1167q0 86 45 188.5t122 174.5l56 -47q-109 -125 -123 -228q8 8 33 9q49 0 81.5 -33t32.5 -82q0 -47 -34.5 -80t-85.5 -33q-55 0 -91 36t-36 95z" />
<glyph unicode="&#x2019;" horiz-adv-x="538" d="M152 1362q0 47 34.5 80t85.5 33q55 0 91 -36t36 -96q0 -86 -45 -188t-123 -174l-55 47q109 125 123 227q-8 -8 -33 -8q-49 0 -81.5 33t-32.5 82z" />
<glyph unicode="&#x201c;" horiz-adv-x="843" d="M152 1159q0 86 45 188.5t122 174.5l56 -47q-109 -125 -123 -228q8 8 33 8q49 0 81.5 -32.5t32.5 -81.5q0 -47 -34.5 -80t-85.5 -33q-55 0 -91 36t-36 95zM457 1159q0 86 45 188.5t123 174.5l55 -47q-109 -125 -123 -228q8 8 33 8q49 0 82 -32.5t33 -81.5q0 -47 -35 -80 t-86 -33q-55 0 -91 36t-36 95z" />
<glyph unicode="&#x201d;" horiz-adv-x="843" d="M152 1362q0 47 34.5 80t85.5 33q55 0 91 -36t36 -96q0 -86 -45 -188t-123 -174l-55 47q109 125 123 227q-8 -8 -33 -8q-49 0 -81.5 33t-32.5 82zM457 1362q0 47 35 80t86 33q55 0 91 -36t36 -96q0 -86 -45.5 -188t-122.5 -174l-56 47q109 125 123 227q-8 -8 -33 -8 q-49 0 -81.5 33t-32.5 82z" />
<glyph unicode="&#x201e;" horiz-adv-x="843" d="M152 94q0 47 34.5 80t85.5 33q55 0 91 -36t36 -95q0 -86 -45 -188.5t-123 -174.5l-55 47q109 125 123 228q-8 -8 -33 -8q-49 0 -81.5 32.5t-32.5 81.5zM457 94q0 47 35 80t86 33q55 0 91 -36t36 -95q0 -86 -45.5 -188.5t-122.5 -174.5l-56 47q109 125 123 228 q-8 -8 -33 -8q-49 0 -81.5 32.5t-32.5 81.5z" />
<glyph unicode="&#x2022;" horiz-adv-x="759" d="M182 571q0 80 57.5 134.5t141.5 54.5t140.5 -54.5t56.5 -134.5q0 -78 -57.5 -132t-139.5 -54q-84 0 -141.5 54.5t-57.5 131.5z" />
<glyph unicode="&#x2026;" horiz-adv-x="1527" d="M139 92q0 49 35 82t88 33t88 -33t35 -82t-35 -80.5t-88 -31.5t-88 31.5t-35 80.5zM641 92q0 49 35 82t88 33t88 -33t35 -82t-35 -80.5t-88 -31.5t-88 31.5t-35 80.5zM1143 92q0 49 34.5 82t88 33t88.5 -33t35 -82t-35 -80.5t-88.5 -31.5t-88 31.5t-34.5 80.5z" />
<glyph unicode="&#x202f;" horiz-adv-x="404" />
<glyph unicode="&#x2039;" horiz-adv-x="843" d="M96 612l432 -438h189l-434 438l434 439h-189z" />
<glyph unicode="&#x203a;" horiz-adv-x="843" d="M127 174h188l433 438l-433 439h-188l434 -439z" />
<glyph unicode="&#x205f;" horiz-adv-x="505" />
<glyph unicode="&#x20ac;" horiz-adv-x="1861" d="M98 520v115h207q-4 53 -4 81.5t4 82.5h-207v114h221q55 266 253 415t509 149q434 0 662 -349l-146 -84q-170 272 -518 273q-236 0 -384 -102.5t-195 -301.5h872v-114h-891q-4 -53 -4 -82t4 -82h891v-115h-872q47 -199 195 -301t384 -102q348 0 518 272l146 -84 q-227 -348 -662 -348q-311 0 -508.5 148.5t-253.5 414.5h-221z" />
<glyph unicode="&#x2122;" horiz-adv-x="1992" d="M86 1331v103h733v-103h-311v-598h-111v598h-311zM926 733v701h110l324 -422l330 422h106v-701h-106v543l-328 -414h-6l-326 414v-543h-104z" />
<glyph unicode="&#x25fc;" horiz-adv-x="1116" d="M0 0v1116h1116v-1116h-1116z" />
</font>
</defs>
</svg>
